<svg width="259" height="20" viewBox="0 0 259 20" fill="none" xmlns="http://www.w3.org/2000/svg">
<text fill="#51AE67" xml:space="preserve" style="white-space: pre" font-family="PingFang SC" font-size="14" font-weight="500" letter-spacing="0em"><tspan x="20.5977" y="15.04">&#x8ba1;&#x5212;&#x5df2;&#x81ea;&#x52a8;&#x5ef6;&#x671f;&#x4e00;&#x5929;&#xff0c;&#x8bf7;&#x56de;&#x5230;&#x9996;&#x9875;&#x67e5;&#x770b;</tspan></text>
<path d="M7.5 3.0957C11.6422 3.0957 15 6.45345 15 10.5957C15 14.738 11.6422 18.0957 7.5 18.0957C3.35775 18.0957 0 14.738 0 10.5957C0 6.45345 3.35775 3.0957 7.5 3.0957ZM7.5 4.5957C4.18612 4.5957 1.5 7.28183 1.5 10.5957C1.5 13.9096 4.18612 16.5957 7.5 16.5957C10.8139 16.5957 13.5 13.9096 13.5 10.5957C13.5 7.28183 10.8139 4.5957 7.5 4.5957ZM7.5 6.4707C7.54925 6.4707 7.59801 6.4804 7.64351 6.49925C7.689 6.51809 7.73034 6.54572 7.76517 6.58054C7.79999 6.61536 7.82761 6.6567 7.84645 6.7022C7.8653 6.74769 7.875 6.79646 7.875 6.8457V10.9707H10.875C10.9242 10.9707 10.973 10.9804 11.0185 10.9992C11.064 11.0181 11.1053 11.0457 11.1402 11.0805C11.175 11.1154 11.2026 11.1567 11.2215 11.2022C11.2403 11.2477 11.25 11.2965 11.25 11.3457V12.0957C11.25 12.1449 11.2403 12.1937 11.2215 12.2392C11.2026 12.2847 11.175 12.326 11.1402 12.3609C11.1053 12.3957 11.064 12.4233 11.0185 12.4422C10.973 12.461 10.9242 12.4707 10.875 12.4707H6.75C6.70075 12.4707 6.65199 12.461 6.60649 12.4422C6.561 12.4233 6.51966 12.3957 6.48483 12.3609C6.45001 12.326 6.42239 12.2847 6.40354 12.2392C6.3847 12.1937 6.375 12.1449 6.375 12.0957V6.8457C6.375 6.79646 6.3847 6.74769 6.40354 6.7022C6.42239 6.6567 6.45001 6.61536 6.48483 6.58054C6.51966 6.54572 6.561 6.51809 6.60649 6.49925C6.65199 6.4804 6.70075 6.4707 6.75 6.4707H7.5Z" fill="#51AE67"/>
</svg>
