<svg width="375" height="812" viewBox="0 0 375 812" fill="none" xmlns="http://www.w3.org/2000/svg" xmlns:xlink="http://www.w3.org/1999/xlink">
<rect width="375" height="812" fill="#252222"/>
<g clip-path="url(#clip0_2710_16984)">
<rect width="375" height="812" rx="33" fill="#F3F3F3"/>
<rect width="375" height="812" fill="url(#pattern0_2710_16984)" fill-opacity="0.2"/>
<rect width="375" height="812" fill="url(#paint0_linear_2710_16984)"/>
<rect x="121" y="798" width="134" height="5" rx="2.5" fill="black"/>
<circle cx="434" cy="712" r="182" fill="url(#paint1_radial_2710_16984)" fill-opacity="0.4"/>
<circle cx="-28" cy="648" r="182" fill="url(#paint2_radial_2710_16984)" fill-opacity="0.4"/>
<circle cx="419" cy="134" r="182" fill="url(#paint3_radial_2710_16984)"/>
<circle cx="-43" cy="70" r="182" fill="url(#paint4_radial_2710_16984)"/>
<g filter="url(#filter0_d_2710_16984)">
<rect x="287" y="145" width="74" height="48" rx="20" fill="#143515" fill-opacity="0.4" shape-rendering="crispEdges"/>
</g>
<text fill="white" xml:space="preserve" style="white-space: pre" font-family="PingFang SC" font-size="14" font-weight="500" letter-spacing="0.08em"><tspan x="309" y="174.04">&#x9ad8;&#x4e09;</tspan></text>
<rect x="310" y="199" width="51" height="30" rx="15" fill="white" fill-opacity="0.3"/>
<rect x="310" y="539" width="51" height="30" rx="15" fill="white" fill-opacity="0.3"/>
<path d="M328.663 217.588C329.84 220.19 332.459 222 335.5 222C339.642 222 343 218.642 343 214.5L339.471 216.706M331.529 212.294L328 214.5C328 210.358 331.358 207 335.5 207C337.791 207 339.843 208.028 341.219 209.647C341.5 210.015 342.062 210.75 342.437 211.688" stroke="#143515" stroke-opacity="0.4" stroke-width="2" stroke-linecap="round" stroke-linejoin="round"/>
<path d="M328.663 557.588C329.84 560.19 332.459 562 335.5 562C339.642 562 343 558.642 343 554.5L339.471 556.706M331.529 552.294L328 554.5C328 550.358 331.358 547 335.5 547C337.791 547 339.843 548.028 341.219 549.647C341.5 550.015 342.062 550.75 342.437 551.688" stroke="#143515" stroke-opacity="0.4" stroke-width="2" stroke-linecap="round" stroke-linejoin="round"/>
<path d="M0 724H375V812H0V724Z" fill="white"/>
<mask id="path-16-inside-1_2710_16984" fill="white">
<path fill-rule="evenodd" clip-rule="evenodd" d="M310.492 762.57C313.259 760.097 315 756.502 315 752.5C315 745.044 308.956 739 301.5 739C294.044 739 288 745.044 288 752.5C288 756.502 289.741 760.097 292.508 762.57C288.828 766.582 293.505 771.6 299 771.6H302.927H304C309.495 771.6 314.172 766.582 310.492 762.57Z"/>
</mask>
<path d="M310.492 762.57L308.826 760.705L306.938 762.393L308.65 764.259L310.492 762.57ZM292.508 762.57L294.35 764.259L296.062 762.393L294.174 760.705L292.508 762.57ZM312.5 752.5C312.5 755.761 311.084 758.688 308.826 760.705L312.158 764.434C315.433 761.507 317.5 757.244 317.5 752.5H312.5ZM301.5 741.5C307.575 741.5 312.5 746.425 312.5 752.5H317.5C317.5 743.663 310.337 736.5 301.5 736.5V741.5ZM290.5 752.5C290.5 746.425 295.425 741.5 301.5 741.5V736.5C292.663 736.5 285.5 743.663 285.5 752.5H290.5ZM294.174 760.705C291.916 758.688 290.5 755.761 290.5 752.5H285.5C285.5 757.244 287.567 761.507 290.842 764.434L294.174 760.705ZM290.666 760.88C289.371 762.291 288.686 763.95 288.697 765.69C288.708 767.393 289.385 768.923 290.356 770.145C292.265 772.545 295.553 774.1 299 774.1V769.1C296.952 769.1 295.154 768.145 294.27 767.033C293.846 766.5 293.699 766.023 293.697 765.657C293.695 765.327 293.805 764.854 294.35 764.259L290.666 760.88ZM299 774.1H302.927V769.1H299V774.1ZM302.927 774.1H304V769.1H302.927V774.1ZM304 774.1C307.447 774.1 310.735 772.545 312.644 770.145C313.615 768.923 314.292 767.393 314.303 765.69C314.314 763.95 313.629 762.291 312.334 760.88L308.65 764.259C309.195 764.854 309.305 765.327 309.303 765.657C309.301 766.023 309.154 766.5 308.73 767.033C307.846 768.145 306.048 769.1 304 769.1V774.1Z" fill="#D9D9D9" mask="url(#path-16-inside-1_2710_16984)"/>
<circle cx="298" cy="751.5" r="1.5" fill="#D9D9D9"/>
<circle cx="304.899" cy="751.5" r="1.5" fill="#D9D9D9"/>
<path d="M58.25 745.02C58.25 742.948 59.9289 741.27 62 741.27H74C79.9371 741.27 84.75 746.082 84.75 752.02V766.25C84.75 768.321 83.0711 770 81 770H69C63.0629 770 58.25 765.187 58.25 759.25V745.02Z" stroke="#D9D9D9" stroke-width="2.5"/>
<rect x="63.4062" y="749.185" width="13.7982" height="2.46397" rx="1.23198" fill="#D9D9D9"/>
<rect x="63.4062" y="755.593" width="9.85586" height="2.46397" rx="1.23198" fill="#D9D9D9"/>
<g filter="url(#filter1_d_2710_16984)">
<rect x="159" y="724" width="58" height="56" rx="28" fill="#51AE67"/>
<path d="M183.112 728.437C187.214 729.062 187.08 737.336 186.5 741.395C186.5 741.395 187.448 733.017 185.859 733.017C180.639 734.357 179.009 727.811 183.112 728.437Z" fill="#91FF56" stroke="black" stroke-width="1.5"/>
<path d="M192.555 732.127C194.634 731.2 194.088 727.976 191.074 728.44C188.06 728.904 187.012 731.741 186.838 733.055C186.752 738.195 186.838 742.099 186.838 741.287C186.838 734.095 188.917 733.751 192.555 732.127Z" fill="#9DFF9A" stroke="black" stroke-width="1.5"/>
<circle cx="185.3" cy="760.691" r="20.5" fill="white"/>
<ellipse cx="194.9" cy="764" rx="18" ry="12" fill="white"/>
<circle cx="199.899" cy="768.715" r="8.5" fill="white"/>
<ellipse cx="192.3" cy="768.203" rx="13.5" ry="12" fill="white"/>
<path d="M181.8 756.783C191.295 756.25 191.803 769.621 183.677 773.203M204.322 754.217C213.817 753.684 215.871 768.227 207.745 771.81" stroke="black" stroke-width="2" stroke-linecap="round"/>
<path d="M169.378 773.303C166.986 769.785 164.8 765.482 164.8 760.836C164.8 748.944 174.018 739.303 185.388 739.303C194.08 739.303 200.78 744.936 203.8 752.903" stroke="black" stroke-width="2" stroke-linecap="round"/>
<circle cx="191.299" cy="755.988" r="1" fill="black"/>
<circle cx="199.5" cy="754.195" r="1" fill="black"/>
<path d="M201.764 770.162C200.79 771.549 194.257 770.293 191.111 769.492C188.921 768.602 189.861 766.187 191.089 766.041C194.183 765.671 197.338 765.8 199.825 766.067C201.884 766.287 202.954 768.468 201.764 770.162Z" fill="#FB9D22" stroke="black" stroke-width="1.5"/>
<path d="M204.1 758.895C202.986 756.296 196.043 758.378 191.986 760.023C191.392 760.264 190.797 760.549 190.395 761.048C188.676 763.183 189.754 767.142 191.1 767.395C193.946 767.928 196.832 767.888 199.379 767.591C203.575 767.102 205.764 762.778 204.1 758.895Z" fill="#FB9D22" stroke="black" stroke-width="1.5"/>
</g>
<rect x="121" y="798" width="134" height="5" rx="2.5" fill="black"/>
<rect x="109" y="14" width="157" height="36" rx="18" fill="#010101" fill-opacity="0.8"/>
<g filter="url(#filter2_d_2710_16984)">
<rect x="15" y="65" width="346" height="68" rx="20" fill="white" fill-opacity="0.4" shape-rendering="crispEdges"/>
</g>
<g filter="url(#filter3_d_2710_16984)">
<rect x="15" y="247" width="346" height="68" rx="20" fill="white" fill-opacity="0.4" shape-rendering="crispEdges"/>
</g>
<text fill="#585858" xml:space="preserve" style="white-space: pre" font-family="PingFang SC" font-size="14" font-weight="500" letter-spacing="0.08em"><tspan x="37" y="94.04">&#x55e8;&#xff01;&#x6211;&#x662f;&#x4f34;&#x5b66;&#x9e2d;&#xff0c;&#x4f60;&#x53eb;&#x6211;&#x9e2d;&#x9e2d;&#x5c31;&#x597d;&#x4e86;&#xff5e;&#x4f60;&#x662f;&#x9ad8;&#10;</tspan><tspan x="37" y="114.04">&#x4e09;&#x515a;&#xff1f;&#x6b63;&#x5728;&#x54ea;&#x4e2a;&#x7701;&#x4efd;&#x594b;&#x6597;&#x5440;&#xff1f;</tspan></text>
<text fill="#585858" xml:space="preserve" style="white-space: pre" font-family="PingFang SC" font-size="14" font-weight="500" letter-spacing="0.08em"><tspan x="37" y="276.04">&#x9ad8;&#x4e09;&#x515a;&#x4e0d;&#x5bb9;&#x6613;&#x5440;&#xff0c;&#x8fd8;&#x6709;&#x51e0;&#x5341;&#x5929;&#x5c31;&#x9ad8;&#x8003;&#x4e86;&#x5462;&#xff0c;&#x4f60;&#10;</tspan><tspan x="37" y="296.04">&#x5728;&#x54ea;&#x4e2a;&#x7701;&#x4efd;&#x594b;&#x6597;&#x5462;&#xff5e;</tspan></text>
<g filter="url(#filter4_d_2710_16984)">
<rect x="14" y="327" width="346" height="60" rx="18" fill="white" fill-opacity="0.2" shape-rendering="crispEdges"/>
<text fill="#585858" xml:space="preserve" style="white-space: pre" font-family="PingFang SC" font-size="18" font-weight="500" letter-spacing="0.08em"><tspan x="168" y="363.48">&#x6e56;&#x5317;</tspan></text>
</g>
<g filter="url(#filter5_d_2710_16984)">
<rect x="14" y="399" width="346" height="60" rx="18" fill="white" fill-opacity="0.2" shape-rendering="crispEdges"/>
<text fill="#585858" xml:space="preserve" style="white-space: pre" font-family="PingFang SC" font-size="18" font-weight="500" letter-spacing="0.08em"><tspan x="168" y="435.48">&#x6e56;&#x5357;</tspan></text>
</g>
<g filter="url(#filter6_d_2710_16984)">
<rect x="14" y="471" width="346" height="60" rx="18" fill="white" fill-opacity="0.2" shape-rendering="crispEdges"/>
<text fill="#585858" xml:space="preserve" style="white-space: pre" font-family="PingFang SC" font-size="18" font-weight="500" letter-spacing="0.08em"><tspan x="168" y="507.48">&#x6cb3;&#x5317;</tspan></text>
</g>
<path fill-rule="evenodd" clip-rule="evenodd" d="M304 30H305C305.552 30 306 30.4477 306 31V37C306 37.5523 305.552 38 305 38H304C303.448 38 303 37.5523 303 37V31C303 30.4477 303.448 30 304 30Z" fill="#333333"/>
<path fill-rule="evenodd" clip-rule="evenodd" d="M299.5 32H300.5C301.052 32 301.5 32.4477 301.5 33V37C301.5 37.5523 301.052 38 300.5 38H299.5C298.948 38 298.5 37.5523 298.5 37V33C298.5 32.4477 298.948 32 299.5 32Z" fill="#333333"/>
<path fill-rule="evenodd" clip-rule="evenodd" d="M295 33.5H296C296.552 33.5 297 33.9477 297 34.5V37C297 37.5523 296.552 38 296 38H295C294.448 38 294 37.5523 294 37V34.5C294 33.9477 294.448 33.5 295 33.5Z" fill="#333333"/>
<path fill-rule="evenodd" clip-rule="evenodd" d="M308.5 28H309.5C310.052 28 310.5 28.4477 310.5 29V37C310.5 37.5523 310.052 38 309.5 38H308.5C307.948 38 307.5 37.5523 307.5 37V29C307.5 28.4477 307.948 28 308.5 28Z" fill="#333333" fill-opacity="0.2"/>
<path fill-rule="evenodd" clip-rule="evenodd" d="M304 30H305C305.552 30 306 30.4477 306 31V37C306 37.5523 305.552 38 305 38H304C303.448 38 303 37.5523 303 37V31C303 30.4477 303.448 30 304 30Z" fill="#333333"/>
<path fill-rule="evenodd" clip-rule="evenodd" d="M299.5 32H300.5C301.052 32 301.5 32.4477 301.5 33V37C301.5 37.5523 301.052 38 300.5 38H299.5C298.948 38 298.5 37.5523 298.5 37V33C298.5 32.4477 298.948 32 299.5 32Z" fill="#333333"/>
<path fill-rule="evenodd" clip-rule="evenodd" d="M295 33.5H296C296.552 33.5 297 33.9477 297 34.5V37C297 37.5523 296.552 38 296 38H295C294.448 38 294 37.5523 294 37V34.5C294 33.9477 294.448 33.5 295 33.5Z" fill="#333333"/>
<path d="M324.133 34.9395C324.772 34.9395 325.394 35.1075 325.941 35.4279L326.163 35.5577C326.331 35.6562 326.361 35.8865 326.223 36.024L324.329 37.9129C324.212 38.0289 324.024 38.0289 323.907 37.9129L322.026 36.0362C321.888 35.8993 321.917 35.6701 322.084 35.5709L322.303 35.4405C322.855 35.112 323.485 34.9395 324.133 34.9395Z" fill="#333333"/>
<path d="M324.133 31.4697C325.724 31.4697 327.251 31.9975 328.495 32.9748L328.671 33.1129C328.811 33.223 328.824 33.4305 328.697 33.5564L327.567 34.684C327.462 34.7883 327.297 34.8003 327.178 34.7121L327.04 34.6097C326.2 33.9851 325.186 33.6501 324.133 33.6501C323.073 33.6501 322.053 33.9893 321.21 34.621L321.072 34.7244C320.953 34.8133 320.787 34.8016 320.682 34.697L319.552 33.5697C319.426 33.4442 319.438 33.2372 319.578 33.1269L319.753 32.9886C321 32.0026 322.534 31.4697 324.133 31.4697Z" fill="#333333"/>
<path d="M324.133 28C326.657 28 329.072 28.8906 330.983 30.5229L331.146 30.6623C331.278 30.7749 331.285 30.9756 331.163 31.098L330.036 32.2219C329.926 32.3308 329.752 32.3385 329.634 32.2395L329.494 32.1228C327.989 30.8647 326.104 30.1804 324.133 30.1804C322.155 30.1804 320.263 30.8694 318.756 32.1354L318.617 32.2527C318.498 32.3521 318.324 32.3447 318.214 32.2356L317.087 31.1118C316.965 30.9895 316.972 30.7892 317.104 30.6765L317.266 30.5371C319.18 28.8959 321.601 28 324.133 28Z" fill="#333333"/>
<path d="M360 31C360.552 31 361 31.4477 361 32V34C361 34.5523 360.552 35 360 35V31Z" fill="#333333" fill-opacity="0.6"/>
<path fill-rule="evenodd" clip-rule="evenodd" d="M339 27H356C357.657 27 359 28.3431 359 30V36C359 37.6569 357.657 39 356 39H339C337.343 39 336 37.6569 336 36V30C336 28.3431 337.343 27 339 27ZM339 28C337.895 28 337 28.8954 337 30V36C337 37.1046 337.895 38 339 38H356C357.105 38 358 37.1046 358 36V30C358 28.8954 357.105 28 356 28H339Z" fill="#333333" fill-opacity="0.6"/>
<rect x="338" y="29" width="19" height="8" rx="1" fill="#333333"/>
<path d="M37.8672 38.0889C40.5552 38.0889 42.1519 35.9868 42.1519 32.4272C42.1519 31.0869 41.8955 29.959 41.4048 29.0874C40.6943 27.7324 39.4712 27 37.9258 27C35.626 27 34 28.5454 34 30.7134C34 32.7495 35.4648 34.229 37.479 34.229C38.7168 34.229 39.7202 33.6504 40.2183 32.647H40.2402C40.2402 32.647 40.2695 32.647 40.2769 32.647C40.2915 32.647 40.3428 32.647 40.3428 32.647C40.3428 35.064 39.4272 36.5068 37.8818 36.5068C36.9736 36.5068 36.2705 36.0088 36.0288 35.2104H34.1465C34.4614 36.9463 35.9336 38.0889 37.8672 38.0889ZM37.9331 32.7275C36.7173 32.7275 35.853 31.8633 35.853 30.6548C35.853 29.4756 36.7612 28.5747 37.9404 28.5747C39.1196 28.5747 40.0278 29.4902 40.0278 30.6841C40.0278 31.8633 39.1416 32.7275 37.9331 32.7275Z" fill="#333333"/>
<path d="M45.243 37.9863C45.9388 37.9863 46.4148 37.4883 46.4148 36.8291C46.4148 36.1626 45.9388 35.6719 45.243 35.6719C44.5545 35.6719 44.0711 36.1626 44.0711 36.8291C44.0711 37.4883 44.5545 37.9863 45.243 37.9863ZM45.243 32.4932C45.9388 32.4932 46.4148 32.0024 46.4148 31.3433C46.4148 30.6768 45.9388 30.186 45.243 30.186C44.5545 30.186 44.0711 30.6768 44.0711 31.3433C44.0711 32.0024 44.5545 32.4932 45.243 32.4932Z" fill="#333333"/>
<path d="M53.2706 37.8325H55.0797V35.8623H56.5079V34.2656H55.0797V27.2637H52.4137C50.546 30.0762 49.0592 32.4272 48.107 34.1777V35.8623H53.2706V37.8325ZM49.8575 34.1997C51.088 32.0317 52.1866 30.2959 53.1974 28.8018H53.2999V34.3096H49.8575V34.1997Z" fill="#333333"/>
<path d="M60.5365 37.8325H62.4262V27.2637H60.5438L57.7826 29.1973V31.0137L60.412 29.168H60.5365V37.8325Z" fill="#333333"/>
<rect x="14.25" y="660.25" width="346.5" height="47.5" rx="23.75" fill="white" fill-opacity="0.96" stroke="url(#paint5_linear_2710_16984)" stroke-width="0.5"/>
<text fill="black" fill-opacity="0.5" xml:space="preserve" style="white-space: pre" font-family="PingFang SC" font-size="16" letter-spacing="0.08em"><tspan x="28" y="689.76">&#x7ed9;&#x4f34;&#x5b66;&#x9e2d;&#x53d1;&#x9001;&#x6d88;&#x606f;&#xff5e;</tspan></text>
</g>
<defs>
<pattern id="pattern0_2710_16984" patternContentUnits="objectBoundingBox" width="1" height="1">
<use xlink:href="#image0_2710_16984" transform="matrix(0.00180444 0 0 0.000833333 -0.582667 0)"/>
</pattern>
<filter id="filter0_d_2710_16984" x="261.9" y="121.9" width="124.2" height="98.2" filterUnits="userSpaceOnUse" color-interpolation-filters="sRGB">
<feFlood flood-opacity="0" result="BackgroundImageFix"/>
<feColorMatrix in="SourceAlpha" type="matrix" values="0 0 0 0 0 0 0 0 0 0 0 0 0 0 0 0 0 0 127 0" result="hardAlpha"/>
<feOffset dy="2"/>
<feGaussianBlur stdDeviation="12.55"/>
<feComposite in2="hardAlpha" operator="out"/>
<feColorMatrix type="matrix" values="0 0 0 0 0.763171 0 0 0 0 0.884075 0 0 0 0 0.585845 0 0 0 0.3 0"/>
<feBlend mode="normal" in2="BackgroundImageFix" result="effect1_dropShadow_2710_16984"/>
<feBlend mode="normal" in="SourceGraphic" in2="effect1_dropShadow_2710_16984" result="shape"/>
</filter>
<filter id="filter1_d_2710_16984" x="155" y="724" width="66" height="65.1914" filterUnits="userSpaceOnUse" color-interpolation-filters="sRGB">
<feFlood flood-opacity="0" result="BackgroundImageFix"/>
<feColorMatrix in="SourceAlpha" type="matrix" values="0 0 0 0 0 0 0 0 0 0 0 0 0 0 0 0 0 0 127 0" result="hardAlpha"/>
<feOffset dy="4"/>
<feGaussianBlur stdDeviation="2"/>
<feComposite in2="hardAlpha" operator="out"/>
<feColorMatrix type="matrix" values="0 0 0 0 0 0 0 0 0 0 0 0 0 0 0 0 0 0 0.25 0"/>
<feBlend mode="normal" in2="BackgroundImageFix" result="effect1_dropShadow_2710_16984"/>
<feBlend mode="normal" in="SourceGraphic" in2="effect1_dropShadow_2710_16984" result="shape"/>
</filter>
<filter id="filter2_d_2710_16984" x="-10" y="42" width="396" height="118" filterUnits="userSpaceOnUse" color-interpolation-filters="sRGB">
<feFlood flood-opacity="0" result="BackgroundImageFix"/>
<feColorMatrix in="SourceAlpha" type="matrix" values="0 0 0 0 0 0 0 0 0 0 0 0 0 0 0 0 0 0 127 0" result="hardAlpha"/>
<feOffset dy="2"/>
<feGaussianBlur stdDeviation="12.5"/>
<feComposite in2="hardAlpha" operator="out"/>
<feColorMatrix type="matrix" values="0 0 0 0 0.764706 0 0 0 0 0.882353 0 0 0 0 0.584314 0 0 0 0.3 0"/>
<feBlend mode="normal" in2="BackgroundImageFix" result="effect1_dropShadow_2710_16984"/>
<feBlend mode="normal" in="SourceGraphic" in2="effect1_dropShadow_2710_16984" result="shape"/>
</filter>
<filter id="filter3_d_2710_16984" x="-10" y="224" width="396" height="118" filterUnits="userSpaceOnUse" color-interpolation-filters="sRGB">
<feFlood flood-opacity="0" result="BackgroundImageFix"/>
<feColorMatrix in="SourceAlpha" type="matrix" values="0 0 0 0 0 0 0 0 0 0 0 0 0 0 0 0 0 0 127 0" result="hardAlpha"/>
<feOffset dy="2"/>
<feGaussianBlur stdDeviation="12.5"/>
<feComposite in2="hardAlpha" operator="out"/>
<feColorMatrix type="matrix" values="0 0 0 0 0.764706 0 0 0 0 0.882353 0 0 0 0 0.584314 0 0 0 0.3 0"/>
<feBlend mode="normal" in2="BackgroundImageFix" result="effect1_dropShadow_2710_16984"/>
<feBlend mode="normal" in="SourceGraphic" in2="effect1_dropShadow_2710_16984" result="shape"/>
</filter>
<filter id="filter4_d_2710_16984" x="-11" y="304" width="396" height="110" filterUnits="userSpaceOnUse" color-interpolation-filters="sRGB">
<feFlood flood-opacity="0" result="BackgroundImageFix"/>
<feColorMatrix in="SourceAlpha" type="matrix" values="0 0 0 0 0 0 0 0 0 0 0 0 0 0 0 0 0 0 127 0" result="hardAlpha"/>
<feOffset dy="2"/>
<feGaussianBlur stdDeviation="12.5"/>
<feComposite in2="hardAlpha" operator="out"/>
<feColorMatrix type="matrix" values="0 0 0 0 0.764706 0 0 0 0 0.882353 0 0 0 0 0.584314 0 0 0 0.3 0"/>
<feBlend mode="normal" in2="BackgroundImageFix" result="effect1_dropShadow_2710_16984"/>
<feBlend mode="normal" in="SourceGraphic" in2="effect1_dropShadow_2710_16984" result="shape"/>
</filter>
<filter id="filter5_d_2710_16984" x="-11" y="376" width="396" height="110" filterUnits="userSpaceOnUse" color-interpolation-filters="sRGB">
<feFlood flood-opacity="0" result="BackgroundImageFix"/>
<feColorMatrix in="SourceAlpha" type="matrix" values="0 0 0 0 0 0 0 0 0 0 0 0 0 0 0 0 0 0 127 0" result="hardAlpha"/>
<feOffset dy="2"/>
<feGaussianBlur stdDeviation="12.5"/>
<feComposite in2="hardAlpha" operator="out"/>
<feColorMatrix type="matrix" values="0 0 0 0 0.764706 0 0 0 0 0.882353 0 0 0 0 0.584314 0 0 0 0.3 0"/>
<feBlend mode="normal" in2="BackgroundImageFix" result="effect1_dropShadow_2710_16984"/>
<feBlend mode="normal" in="SourceGraphic" in2="effect1_dropShadow_2710_16984" result="shape"/>
</filter>
<filter id="filter6_d_2710_16984" x="-11" y="448" width="396" height="110" filterUnits="userSpaceOnUse" color-interpolation-filters="sRGB">
<feFlood flood-opacity="0" result="BackgroundImageFix"/>
<feColorMatrix in="SourceAlpha" type="matrix" values="0 0 0 0 0 0 0 0 0 0 0 0 0 0 0 0 0 0 127 0" result="hardAlpha"/>
<feOffset dy="2"/>
<feGaussianBlur stdDeviation="12.5"/>
<feComposite in2="hardAlpha" operator="out"/>
<feColorMatrix type="matrix" values="0 0 0 0 0.764706 0 0 0 0 0.882353 0 0 0 0 0.584314 0 0 0 0.3 0"/>
<feBlend mode="normal" in2="BackgroundImageFix" result="effect1_dropShadow_2710_16984"/>
<feBlend mode="normal" in="SourceGraphic" in2="effect1_dropShadow_2710_16984" result="shape"/>
</filter>
<linearGradient id="paint0_linear_2710_16984" x1="188" y1="-29.5" x2="614.263" y2="365.503" gradientUnits="userSpaceOnUse">
<stop stop-color="#CCFF88"/>
<stop offset="1" stop-color="#F1FFD7"/>
</linearGradient>
<radialGradient id="paint1_radial_2710_16984" cx="0" cy="0" r="1" gradientUnits="userSpaceOnUse" gradientTransform="translate(434 712) rotate(90) scale(182)">
<stop stop-color="white"/>
<stop offset="1" stop-color="white" stop-opacity="0"/>
</radialGradient>
<radialGradient id="paint2_radial_2710_16984" cx="0" cy="0" r="1" gradientUnits="userSpaceOnUse" gradientTransform="translate(-28 648) rotate(90) scale(182)">
<stop stop-color="white"/>
<stop offset="1" stop-color="white" stop-opacity="0"/>
</radialGradient>
<radialGradient id="paint3_radial_2710_16984" cx="0" cy="0" r="1" gradientUnits="userSpaceOnUse" gradientTransform="translate(419 134) rotate(90) scale(182)">
<stop stop-color="white"/>
<stop offset="1" stop-color="white" stop-opacity="0"/>
</radialGradient>
<radialGradient id="paint4_radial_2710_16984" cx="0" cy="0" r="1" gradientUnits="userSpaceOnUse" gradientTransform="translate(-43 70) rotate(90) scale(182)">
<stop stop-color="white"/>
<stop offset="1" stop-color="white" stop-opacity="0"/>
</radialGradient>
<linearGradient id="paint5_linear_2710_16984" x1="14" y1="635.5" x2="361" y2="745.5" gradientUnits="userSpaceOnUse">
<stop stop-color="white"/>
<stop offset="1" stop-color="white"/>
</linearGradient>
<clipPath id="clip0_2710_16984">
<rect width="375" height="812" rx="33" fill="white"/>
</defs>
</svg>
