<svg width="375" height="88" viewBox="0 0 375 88" fill="none" xmlns="http://www.w3.org/2000/svg">
<path d="M0 0H375V88H0V0Z" fill="white"/>
<path d="M57 21.0195C57 18.2581 59.2386 16.0195 62 16.0195H74C80.6274 16.0195 86 21.3921 86 28.0195V42.2503C86 45.0117 83.7614 47.2503 81 47.2503H69C62.3726 47.2503 57 41.8777 57 35.2503V21.0195Z" fill="#51AE67"/>
<rect x="63.4062" y="25.1836" width="13.7982" height="2.46397" rx="1.23198" fill="white"/>
<rect x="63.4062" y="31.5918" width="9.85586" height="2.46397" rx="1.23198" fill="white"/>
<path d="M183.113 4.4368C187.215 5.06235 187.081 13.3359 186.501 17.3945C186.501 17.3945 187.449 9.01669 185.86 9.01669C180.64 10.3565 179.01 3.81126 183.113 4.4368Z" fill="white" stroke="#D9D9D9" stroke-width="1.5"/>
<path d="M192.556 8.12721C194.635 7.19958 194.089 3.97601 191.075 4.4399C188.061 4.90371 187.013 7.7407 186.839 9.05483C186.753 14.1954 186.839 18.0988 186.839 17.2875C186.839 10.0947 188.918 9.75055 192.556 8.12721Z" fill="white" stroke="#D9D9D9" stroke-width="1.5"/>
<circle cx="185.301" cy="35.7949" r="20.5" fill="white"/>
<ellipse cx="195.801" cy="39.7949" rx="18" ry="11.5" fill="white"/>
<ellipse cx="192.301" cy="44.2031" rx="13.5" ry="12" fill="white"/>
<path d="M181.801 32.7829C191.296 32.2499 191.803 45.6205 183.678 49.2031M204.323 30.2174C213.818 29.6844 215.872 44.2271 207.746 47.8097" stroke="#D9D9D9" stroke-width="2" stroke-linecap="round"/>
<path d="M169.379 49.3027C166.987 45.7846 164.801 41.4822 164.801 36.8361C164.801 24.9435 174.019 15.3027 185.389 15.3027C194.081 15.3027 200.781 20.9363 203.801 28.9027" stroke="#D9D9D9" stroke-width="2" stroke-linecap="round"/>
<circle cx="191.301" cy="31.9883" r="1" fill="#D9D9D9"/>
<path d="M201.764 46.1624C200.791 47.5492 194.257 46.2933 191.112 45.4919C188.922 44.6022 189.862 42.1875 191.089 42.0408C194.184 41.6712 197.339 41.8002 199.825 42.0666C201.884 42.2871 202.955 44.4677 201.764 46.1624Z" fill="white" stroke="#D9D9D9" stroke-width="1.5"/>
<circle cx="199.5" cy="30.1953" r="1" fill="#D9D9D9"/>
<path d="M204.1 34.8947C202.986 32.296 196.044 34.3775 191.987 36.0227C191.393 36.2635 190.797 36.5489 190.395 37.0482C188.676 39.1833 189.754 43.1422 191.1 43.3945C193.946 43.9282 196.832 43.8883 199.379 43.5915C203.575 43.1025 205.764 38.7777 204.1 34.8947Z" fill="white" stroke="#D9D9D9" stroke-width="1.5"/>
<rect x="121" y="74" width="134" height="5" rx="2.5" fill="black"/>
<mask id="path-17-inside-1_3255_7425" fill="white">
<path fill-rule="evenodd" clip-rule="evenodd" d="M310.492 38.5697C313.259 36.0975 315 32.5021 315 28.5C315 21.0442 308.956 15 301.5 15C294.044 15 288 21.0442 288 28.5C288 32.5021 289.741 36.0975 292.508 38.5697C288.828 42.5822 293.505 47.5996 299 47.5996H302.927H304C309.495 47.5996 314.172 42.5822 310.492 38.5697Z"/>
</mask>
<path d="M310.492 38.5697L308.826 36.7055L306.938 38.393L308.65 40.2595L310.492 38.5697ZM292.508 38.5697L294.35 40.2595L296.062 38.393L294.174 36.7055L292.508 38.5697ZM312.5 28.5C312.5 31.7607 311.084 34.6876 308.826 36.7055L312.158 40.4338C315.433 37.5074 317.5 33.2435 317.5 28.5H312.5ZM301.5 17.5C307.575 17.5 312.5 22.4249 312.5 28.5H317.5C317.5 19.6634 310.337 12.5 301.5 12.5V17.5ZM290.5 28.5C290.5 22.4249 295.425 17.5 301.5 17.5V12.5C292.663 12.5 285.5 19.6634 285.5 28.5H290.5ZM294.174 36.7055C291.916 34.6876 290.5 31.7607 290.5 28.5H285.5C285.5 33.2435 287.567 37.5074 290.842 40.4338L294.174 36.7055ZM290.666 36.8798C289.371 38.2911 288.686 39.9503 288.697 41.6899C288.708 43.3931 289.385 44.9232 290.356 46.1453C292.265 48.5452 295.553 50.0996 299 50.0996V45.0996C296.952 45.0996 295.154 44.1453 294.27 43.0334C293.846 42.4996 293.699 42.023 293.697 41.6569C293.695 41.3272 293.805 40.8545 294.35 40.2595L290.666 36.8798ZM299 50.0996H302.927V45.0996H299V50.0996ZM302.927 50.0996H304V45.0996H302.927V50.0996ZM304 50.0996C307.447 50.0996 310.735 48.5452 312.644 46.1453C313.615 44.9232 314.292 43.3931 314.303 41.6899C314.314 39.9503 313.629 38.2911 312.334 36.8798L308.65 40.2595C309.195 40.8545 309.305 41.3272 309.303 41.6569C309.301 42.023 309.154 42.4996 308.73 43.0334C307.846 44.1453 306.048 45.0996 304 45.0996V50.0996Z" fill="#D9D9D9" mask="url(#path-17-inside-1_3255_7425)"/>
<circle cx="298" cy="27.5" r="1.5" fill="#D9D9D9"/>
<circle cx="304.898" cy="27.5" r="1.5" fill="#D9D9D9"/>
</svg>
