<svg width="375" height="812" viewBox="0 0 375 812" fill="none" xmlns="http://www.w3.org/2000/svg" xmlns:xlink="http://www.w3.org/1999/xlink">
<g clip-path="url(#clip0_3248_6480)">
<rect width="375" height="812" rx="33" fill="#F3F3F3"/>
<rect width="375" height="812" fill="url(#pattern0_3248_6480)" fill-opacity="0.2"/>
<rect width="375" height="812" fill="url(#paint0_linear_3248_6480)"/>
<circle cx="419" cy="134" r="182" fill="url(#paint1_radial_3248_6480)"/>
<circle cx="-43" cy="70" r="182" fill="url(#paint2_radial_3248_6480)"/>
<rect x="121" y="798" width="134" height="5" rx="2.5" fill="black"/>
<circle cx="434" cy="712" r="182" fill="url(#paint3_radial_3248_6480)" fill-opacity="0.4"/>
<circle cx="-28" cy="648" r="182" fill="url(#paint4_radial_3248_6480)" fill-opacity="0.4"/>
<rect x="14.25" y="726.25" width="346.5" height="47.5" rx="23.75" fill="white" fill-opacity="0.96" stroke="url(#paint5_linear_3248_6480)" stroke-width="0.5"/>
<text fill="black" fill-opacity="0.5" xml:space="preserve" style="white-space: pre" font-family="PingFang SC" font-size="16" letter-spacing="0.08em"><tspan x="28" y="755.76">&#x7ed9;&#x4f34;&#x5b66;&#x9e2d;&#x53d1;&#x9001;&#x6d88;&#x606f;&#xff5e;</tspan></text>
<g filter="url(#filter0_d_3248_6480)">
<rect x="15" y="230" width="346" height="471" rx="20" fill="white" fill-opacity="0.4" shape-rendering="crispEdges"/>
</g>
<g filter="url(#filter1_d_3248_6480)">
<rect x="16" y="312" width="343" height="315" rx="20" fill="white" fill-opacity="0.4" shape-rendering="crispEdges"/>
</g>
<text fill="#585858" xml:space="preserve" style="white-space: pre" font-family="PingFang SC" font-size="16" font-weight="500" letter-spacing="0em"><tspan x="88" y="358.76">&#x7535;&#x573a;&#x5f3a;&#x5ea6;&#x548c;&#x7535;&#x52bf;&#x4e13;&#x9879;</tspan></text>
<text fill="#868686" xml:space="preserve" style="white-space: pre" font-family="PingFang SC" font-size="12" letter-spacing="0em"><tspan x="88.4941" y="379.82">10&#x9898;</tspan></text>
<circle cx="328" cy="363" r="13" fill="#54CA15" fill-opacity="0.2"/>
<rect x="322.491" y="363.637" width="2" height="5.56187" rx="1" transform="rotate(-45 322.491 363.637)" fill="white"/>
<rect x="332.306" y="359.484" width="2" height="9.87674" rx="1" transform="rotate(45 332.306 359.484)" fill="white"/>
<text fill="#585858" xml:space="preserve" style="white-space: pre" font-family="PingFang SC" font-size="16" font-weight="500" letter-spacing="0em"><tspan x="88" y="432.76">&#x78c1;&#x573a;&#x4e0e;&#x5b89;&#x57f9;&#x529b;&#x7ec3;&#x4e60;</tspan></text>
<text fill="#868686" xml:space="preserve" style="white-space: pre" font-family="PingFang SC" font-size="12" letter-spacing="0em"><tspan x="88.4941" y="453.82">12&#x9898;</tspan></text>
<circle cx="328" cy="437" r="13" fill="#54CA15" fill-opacity="0.2"/>
<rect x="322.491" y="437.637" width="2" height="5.56187" rx="1" transform="rotate(-45 322.491 437.637)" fill="white"/>
<rect x="332.306" y="433.484" width="2" height="9.87674" rx="1" transform="rotate(45 332.306 433.484)" fill="white"/>
<text fill="#868686" xml:space="preserve" style="white-space: pre" font-family="PingFang SC" font-size="12" letter-spacing="0em"><tspan x="88.4941" y="527.82">15&#x9898;</tspan></text>
<text fill="#868686" xml:space="preserve" style="white-space: pre" font-family="PingFang SC" font-size="12" letter-spacing="0em"><tspan x="88.4023" y="601.82">8&#x9898;</tspan></text>
<circle cx="328" cy="511" r="13" fill="#54CA15" fill-opacity="0.2"/>
<rect x="322.491" y="511.637" width="2" height="5.56187" rx="1" transform="rotate(-45 322.491 511.637)" fill="white"/>
<rect x="332.306" y="507.484" width="2" height="9.87674" rx="1" transform="rotate(45 332.306 507.484)" fill="white"/>
<circle cx="328" cy="585" r="13" fill="#54CA15" fill-opacity="0.2"/>
<rect x="322.491" y="585.637" width="2" height="5.56187" rx="1" transform="rotate(-45 322.491 585.637)" fill="white"/>
<rect x="332.306" y="581.484" width="2" height="9.87674" rx="1" transform="rotate(45 332.306 581.484)" fill="white"/>
<text fill="#585858" xml:space="preserve" style="white-space: pre" font-family="PingFang SC" font-size="16" font-weight="500" letter-spacing="0em"><tspan x="88" y="506.76">&#x7535;&#x78c1;&#x611f;&#x5e94;&#x7efc;&#x5408;&#x9898;</tspan></text>
<text fill="#585858" xml:space="preserve" style="white-space: pre" font-family="PingFang SC" font-size="16" font-weight="500" letter-spacing="0em"><tspan x="88" y="580.76">&#x7535;&#x5b66;&#x5b9e;&#x9a8c;&#x4e13;&#x9898;</tspan></text>
<text fill="#469337" xml:space="preserve" style="white-space: pre" font-family="PingFang SC" font-size="20" font-weight="600" letter-spacing="0em"><tspan x="38" y="267.2">&#x7ec3;&#x4e60;&#x9898;&#x6e05;&#x5355;</tspan></text>
<rect x="113" y="643" width="148" height="42" rx="14" fill="#51AE67" fill-opacity="0.2"/>
<text fill="#51AE67" xml:space="preserve" style="white-space: pre" font-family="PingFang SC" font-size="16" font-weight="500" letter-spacing="0em"><tspan x="155" y="669.76">&#x67e5;&#x770b;&#x5168;&#x90e8;</tspan></text>
<text fill="#51AE67" xml:space="preserve" style="white-space: pre" font-family="PingFang SC" font-size="14" font-weight="500" letter-spacing="0em"><tspan x="38" y="291.04">&#x5171;50&#x9053;&#x9898;&#xff0c;&#x5305;&#x542b;&#x9009;&#x62e9;&#x9898;&#x548c;&#x8ba1;&#x7b97;&#x9898;</tspan></text>
<circle cx="57" cy="363" r="23" fill="white"/>
<rect x="48.2505" y="354.25" width="16.5" height="5.5" rx="2.75" stroke="#2A95E7" stroke-width="2.5"/>
<rect x="48.1008" y="364.301" width="8" height="2.5" rx="1.25" fill="#2A95E7"/>
<rect x="62.6133" y="363.801" width="8.75" height="2.1875" rx="1.09375" transform="rotate(90 62.6133 363.801)" fill="#2A95E7"/>
<rect x="65.8945" y="369.27" width="8.75" height="2.1875" rx="1.09375" transform="rotate(-180 65.8945 369.27)" fill="#2A95E7"/>
<rect x="48.1008" y="370.301" width="8" height="2" rx="1" fill="#2A95E7"/>
<circle cx="57" cy="437" r="23" fill="white"/>
<rect x="48.2505" y="428.25" width="16.5" height="5.5" rx="2.75" stroke="#2A95E7" stroke-width="2.5"/>
<rect x="48.1008" y="438.301" width="8" height="2.5" rx="1.25" fill="#2A95E7"/>
<rect x="62.6133" y="437.801" width="8.75" height="2.1875" rx="1.09375" transform="rotate(90 62.6133 437.801)" fill="#2A95E7"/>
<rect x="65.8945" y="443.27" width="8.75" height="2.1875" rx="1.09375" transform="rotate(-180 65.8945 443.27)" fill="#2A95E7"/>
<rect x="48.1008" y="444.301" width="8" height="2" rx="1" fill="#2A95E7"/>
<circle cx="57" cy="511" r="23" fill="white"/>
<rect x="48.2505" y="502.25" width="16.5" height="5.5" rx="2.75" stroke="#2A95E7" stroke-width="2.5"/>
<rect x="48.1008" y="512.301" width="8" height="2.5" rx="1.25" fill="#2A95E7"/>
<rect x="62.6133" y="511.801" width="8.75" height="2.1875" rx="1.09375" transform="rotate(90 62.6133 511.801)" fill="#2A95E7"/>
<rect x="65.8945" y="517.27" width="8.75" height="2.1875" rx="1.09375" transform="rotate(-180 65.8945 517.27)" fill="#2A95E7"/>
<rect x="48.1008" y="518.301" width="8" height="2" rx="1" fill="#2A95E7"/>
<circle cx="57" cy="585" r="23" fill="white"/>
<rect x="48.2505" y="576.25" width="16.5" height="5.5" rx="2.75" stroke="#2A95E7" stroke-width="2.5"/>
<rect x="48.1008" y="586.301" width="8" height="2.5" rx="1.25" fill="#2A95E7"/>
<rect x="62.6133" y="585.801" width="8.75" height="2.1875" rx="1.09375" transform="rotate(90 62.6133 585.801)" fill="#2A95E7"/>
<rect x="65.8945" y="591.27" width="8.75" height="2.1875" rx="1.09375" transform="rotate(-180 65.8945 591.27)" fill="#2A95E7"/>
<rect x="48.1008" y="592.301" width="8" height="2" rx="1" fill="#2A95E7"/>
</g>
<defs>
<pattern id="pattern0_3248_6480" patternContentUnits="objectBoundingBox" width="1" height="1">
<use xlink:href="#image0_3248_6480" transform="matrix(0.00180444 0 0 0.000833333 -0.582667 0)"/>
</pattern>
<filter id="filter0_d_3248_6480" x="-10" y="207" width="396" height="521" filterUnits="userSpaceOnUse" color-interpolation-filters="sRGB">
<feFlood flood-opacity="0" result="BackgroundImageFix"/>
<feColorMatrix in="SourceAlpha" type="matrix" values="0 0 0 0 0 0 0 0 0 0 0 0 0 0 0 0 0 0 127 0" result="hardAlpha"/>
<feOffset dy="2"/>
<feGaussianBlur stdDeviation="12.5"/>
<feComposite in2="hardAlpha" operator="out"/>
<feColorMatrix type="matrix" values="0 0 0 0 0.764706 0 0 0 0 0.882353 0 0 0 0 0.584314 0 0 0 0.3 0"/>
<feBlend mode="normal" in2="BackgroundImageFix" result="effect1_dropShadow_3248_6480"/>
<feBlend mode="normal" in="SourceGraphic" in2="effect1_dropShadow_3248_6480" result="shape"/>
</filter>
<filter id="filter1_d_3248_6480" x="-9" y="289" width="393" height="365" filterUnits="userSpaceOnUse" color-interpolation-filters="sRGB">
<feFlood flood-opacity="0" result="BackgroundImageFix"/>
<feColorMatrix in="SourceAlpha" type="matrix" values="0 0 0 0 0 0 0 0 0 0 0 0 0 0 0 0 0 0 127 0" result="hardAlpha"/>
<feOffset dy="2"/>
<feGaussianBlur stdDeviation="12.5"/>
<feComposite in2="hardAlpha" operator="out"/>
<feColorMatrix type="matrix" values="0 0 0 0 0.730385 0 0 0 0 0.850844 0 0 0 0 0.545681 0 0 0 0.15 0"/>
<feBlend mode="normal" in2="BackgroundImageFix" result="effect1_dropShadow_3248_6480"/>
<feBlend mode="normal" in="SourceGraphic" in2="effect1_dropShadow_3248_6480" result="shape"/>
</filter>
<linearGradient id="paint0_linear_3248_6480" x1="188" y1="-29.5" x2="614.263" y2="365.503" gradientUnits="userSpaceOnUse">
<stop stop-color="#CCFF88"/>
<stop offset="1" stop-color="#F1FFD7"/>
</linearGradient>
<radialGradient id="paint1_radial_3248_6480" cx="0" cy="0" r="1" gradientUnits="userSpaceOnUse" gradientTransform="translate(419 134) rotate(90) scale(182)">
<stop stop-color="white"/>
<stop offset="1" stop-color="white" stop-opacity="0"/>
</radialGradient>
<radialGradient id="paint2_radial_3248_6480" cx="0" cy="0" r="1" gradientUnits="userSpaceOnUse" gradientTransform="translate(-43 70) rotate(90) scale(182)">
<stop stop-color="white"/>
<stop offset="1" stop-color="white" stop-opacity="0"/>
</radialGradient>
<radialGradient id="paint3_radial_3248_6480" cx="0" cy="0" r="1" gradientUnits="userSpaceOnUse" gradientTransform="translate(434 712) rotate(90) scale(182)">
<stop stop-color="white"/>
<stop offset="1" stop-color="white" stop-opacity="0"/>
</radialGradient>
<radialGradient id="paint4_radial_3248_6480" cx="0" cy="0" r="1" gradientUnits="userSpaceOnUse" gradientTransform="translate(-28 648) rotate(90) scale(182)">
<stop stop-color="white"/>
<stop offset="1" stop-color="white" stop-opacity="0"/>
</radialGradient>
<linearGradient id="paint5_linear_3248_6480" x1="14" y1="701.5" x2="361" y2="811.5" gradientUnits="userSpaceOnUse">
<stop stop-color="white"/>
<stop offset="1" stop-color="white"/>
</linearGradient>
<clipPath id="clip0_3248_6480">
<rect width="375" height="812" rx="33" fill="white"/>
</clipPath>

</defs>
</svg>
