<svg width="375" height="812" viewBox="0 0 375 812" fill="none" xmlns="http://www.w3.org/2000/svg" xmlns:xlink="http://www.w3.org/1999/xlink">
<g clip-path="url(#clip0_3248_6264)">
<rect width="375" height="812" rx="33" fill="#F3F3F3"/>
<rect width="375" height="812" fill="url(#pattern0_3248_6264)" fill-opacity="0.2"/>
<rect width="375" height="812" fill="url(#paint0_linear_3248_6264)"/>
<circle cx="419" cy="134" r="182" fill="url(#paint1_radial_3248_6264)"/>
<circle cx="-43" cy="70" r="182" fill="url(#paint2_radial_3248_6264)"/>
<rect x="121" y="798" width="134" height="5" rx="2.5" fill="black"/>
<circle cx="434" cy="712" r="182" fill="url(#paint3_radial_3248_6264)" fill-opacity="0.4"/>
<circle cx="-28" cy="648" r="182" fill="url(#paint4_radial_3248_6264)" fill-opacity="0.4"/>
<rect x="14.25" y="726.25" width="346.5" height="47.5" rx="23.75" fill="white" fill-opacity="0.96" stroke="url(#paint5_linear_3248_6264)" stroke-width="0.5"/>
<text fill="black" fill-opacity="0.5" xml:space="preserve" style="white-space: pre" font-family="PingFang SC" font-size="16" letter-spacing="0.08em"><tspan x="28" y="755.76">&#x7ed9;&#x4f34;&#x5b66;&#x9e2d;&#x53d1;&#x9001;&#x6d88;&#x606f;&#xff5e;</tspan></text>
<g filter="url(#filter0_d_3248_6264)">
<rect x="15" y="230" width="346" height="471" rx="20" fill="white" fill-opacity="0.4" shape-rendering="crispEdges"/>
</g>
<g filter="url(#filter1_d_3248_6264)">
<rect x="16" y="312" width="343" height="315" rx="20" fill="white" fill-opacity="0.4" shape-rendering="crispEdges"/>
</g>
<text fill="#585858" xml:space="preserve" style="white-space: pre" font-family="PingFang SC" font-size="16" font-weight="500" letter-spacing="0em"><tspan x="88" y="358.76">&#x7535;&#x573a;&#x57fa;&#x672c;&#x6982;&#x5ff5;&#x4e0e;&#x89c4;&#x5f8b;</tspan></text>
<text fill="#868686" xml:space="preserve" style="white-space: pre" font-family="PingFang SC" font-size="12" letter-spacing="0em"><tspan x="88.3047" y="379.82">28&#x5206;&#x949f;</tspan></text>
<circle cx="328" cy="363" r="13" fill="#54CA15" fill-opacity="0.2"/>
<rect x="322.491" y="363.637" width="2" height="5.56187" rx="1" transform="rotate(-45 322.491 363.637)" fill="white"/>
<rect x="332.306" y="359.484" width="2" height="9.87674" rx="1" transform="rotate(45 332.306 359.484)" fill="white"/>
<circle cx="57" cy="363" r="23" fill="white"/>
<path d="M63.4536 360.071C65.2944 361.116 65.3132 363.763 63.4874 364.834L55.4122 369.573C53.5864 370.645 51.2854 369.338 51.2704 367.221L51.2038 357.858C51.1887 355.741 53.4709 354.402 55.3118 355.447L63.4536 360.071Z" stroke="#DC74E9" stroke-width="2.5"/>
<circle cx="57" cy="437" r="23" fill="white"/>
<path d="M63.4536 434.071C65.2944 435.116 65.3132 437.763 63.4874 438.834L55.4122 443.573C53.5864 444.645 51.2854 443.338 51.2704 441.221L51.2038 431.858C51.1887 429.741 53.4709 428.402 55.3118 429.447L63.4536 434.071Z" stroke="#DC74E9" stroke-width="2.5"/>
<circle cx="57" cy="511" r="23" fill="white"/>
<path d="M63.4536 508.071C65.2944 509.116 65.3132 511.763 63.4874 512.834L55.4122 517.573C53.5864 518.645 51.2854 517.338 51.2704 515.221L51.2038 505.858C51.1887 503.741 53.4709 502.402 55.3118 503.447L63.4536 508.071Z" stroke="#DC74E9" stroke-width="2.5"/>
<circle cx="57" cy="585" r="23" fill="white"/>
<path d="M63.4536 582.071C65.2944 583.116 65.3132 585.763 63.4874 586.834L55.4122 591.573C53.5864 592.645 51.2854 591.338 51.2704 589.221L51.2038 579.858C51.1887 577.741 53.4709 576.402 55.3118 577.447L63.4536 582.071Z" stroke="#DC74E9" stroke-width="2.5"/>
<text fill="#585858" xml:space="preserve" style="white-space: pre" font-family="PingFang SC" font-size="16" font-weight="500" letter-spacing="0em"><tspan x="88" y="432.76">&#x5b66;&#x9738;&#x7b14;&#x8bb0;&#x3010;&#x7535;&#x573a;&#x529b;&#x4e0e;&#x7535;&#x52bf;&#x80fd;&#x3011;</tspan></text>
<text fill="#868686" xml:space="preserve" style="white-space: pre" font-family="PingFang SC" font-size="12" letter-spacing="0em"><tspan x="88.3047" y="453.82">32&#x5206;&#x949f;</tspan></text>
<circle cx="328" cy="437" r="13" fill="#54CA15" fill-opacity="0.2"/>
<rect x="322.491" y="437.637" width="2" height="5.56187" rx="1" transform="rotate(-45 322.491 437.637)" fill="white"/>
<rect x="332.306" y="433.484" width="2" height="9.87674" rx="1" transform="rotate(45 332.306 433.484)" fill="white"/>
<text fill="#868686" xml:space="preserve" style="white-space: pre" font-family="PingFang SC" font-size="12" letter-spacing="0em"><tspan x="88.3047" y="527.82">30&#x5206;&#x949f;</tspan></text>
<text fill="#868686" xml:space="preserve" style="white-space: pre" font-family="PingFang SC" font-size="12" letter-spacing="0em"><tspan x="88.3047" y="601.82">35&#x5206;&#x949f;</tspan></text>
<circle cx="328" cy="511" r="13" fill="#54CA15" fill-opacity="0.2"/>
<rect x="322.491" y="511.637" width="2" height="5.56187" rx="1" transform="rotate(-45 322.491 511.637)" fill="white"/>
<rect x="332.306" y="507.484" width="2" height="9.87674" rx="1" transform="rotate(45 332.306 507.484)" fill="white"/>
<circle cx="328" cy="585" r="13" fill="#54CA15" fill-opacity="0.2"/>
<rect x="322.491" y="585.637" width="2" height="5.56187" rx="1" transform="rotate(-45 322.491 585.637)" fill="white"/>
<rect x="332.306" y="581.484" width="2" height="9.87674" rx="1" transform="rotate(45 332.306 581.484)" fill="white"/>
<text fill="#585858" xml:space="preserve" style="white-space: pre" font-family="PingFang SC" font-size="16" font-weight="500" letter-spacing="0em"><tspan x="88" y="506.76">&#x78c1;&#x573a;&#x4e0e;&#x5b89;&#x57f9;&#x529b;</tspan></text>
<text fill="#585858" xml:space="preserve" style="white-space: pre" font-family="PingFang SC" font-size="16" font-weight="500" letter-spacing="0em"><tspan x="88" y="580.76">&#x695e;&#x6b21;&#x5b9a;&#x5f8b;&#x8be6;&#x89e3;</tspan></text>
<text fill="#469337" xml:space="preserve" style="white-space: pre" font-family="PingFang SC" font-size="20" font-weight="600" letter-spacing="0em"><tspan x="38" y="267.2">&#x89c6;&#x9891;&#x8bfe;&#x7a0b;&#x6e05;&#x5355;</tspan></text>
<rect x="113" y="643" width="148" height="42" rx="14" fill="#51AE67" fill-opacity="0.2"/>
<text fill="#51AE67" xml:space="preserve" style="white-space: pre" font-family="PingFang SC" font-size="16" font-weight="500" letter-spacing="0em"><tspan x="155" y="669.76">&#x67e5;&#x770b;&#x5168;&#x90e8;</tspan></text>
<text fill="#51AE67" xml:space="preserve" style="white-space: pre" font-family="PingFang SC" font-size="14" font-weight="500" letter-spacing="0em"><tspan x="38" y="291.04">&#x5171;6&#x8282;&#x8bfe;&#xff0c;&#x603b;&#x65f6;&#x957f;&#x7ea6;180&#x5206;&#x949f;</tspan></text>
</g>
<defs>
<pattern id="pattern0_3248_6264" patternContentUnits="objectBoundingBox" width="1" height="1">
<use xlink:href="#image0_3248_6264" transform="matrix(0.00180444 0 0 0.000833333 -0.582667 0)"/>
</pattern>
<filter id="filter0_d_3248_6264" x="-10" y="207" width="396" height="521" filterUnits="userSpaceOnUse" color-interpolation-filters="sRGB">
<feFlood flood-opacity="0" result="BackgroundImageFix"/>
<feColorMatrix in="SourceAlpha" type="matrix" values="0 0 0 0 0 0 0 0 0 0 0 0 0 0 0 0 0 0 127 0" result="hardAlpha"/>
<feOffset dy="2"/>
<feGaussianBlur stdDeviation="12.5"/>
<feComposite in2="hardAlpha" operator="out"/>
<feColorMatrix type="matrix" values="0 0 0 0 0.764706 0 0 0 0 0.882353 0 0 0 0 0.584314 0 0 0 0.3 0"/>
<feBlend mode="normal" in2="BackgroundImageFix" result="effect1_dropShadow_3248_6264"/>
<feBlend mode="normal" in="SourceGraphic" in2="effect1_dropShadow_3248_6264" result="shape"/>
</filter>
<filter id="filter1_d_3248_6264" x="-9" y="289" width="393" height="365" filterUnits="userSpaceOnUse" color-interpolation-filters="sRGB">
<feFlood flood-opacity="0" result="BackgroundImageFix"/>
<feColorMatrix in="SourceAlpha" type="matrix" values="0 0 0 0 0 0 0 0 0 0 0 0 0 0 0 0 0 0 127 0" result="hardAlpha"/>
<feOffset dy="2"/>
<feGaussianBlur stdDeviation="12.5"/>
<feComposite in2="hardAlpha" operator="out"/>
<feColorMatrix type="matrix" values="0 0 0 0 0.730385 0 0 0 0 0.850844 0 0 0 0 0.545681 0 0 0 0.15 0"/>
<feBlend mode="normal" in2="BackgroundImageFix" result="effect1_dropShadow_3248_6264"/>
<feBlend mode="normal" in="SourceGraphic" in2="effect1_dropShadow_3248_6264" result="shape"/>
</filter>
<linearGradient id="paint0_linear_3248_6264" x1="188" y1="-29.5" x2="614.263" y2="365.503" gradientUnits="userSpaceOnUse">
<stop stop-color="#CCFF88"/>
<stop offset="1" stop-color="#F1FFD7"/>
</linearGradient>
<radialGradient id="paint1_radial_3248_6264" cx="0" cy="0" r="1" gradientUnits="userSpaceOnUse" gradientTransform="translate(419 134) rotate(90) scale(182)">
<stop stop-color="white"/>
<stop offset="1" stop-color="white" stop-opacity="0"/>
</radialGradient>
<radialGradient id="paint2_radial_3248_6264" cx="0" cy="0" r="1" gradientUnits="userSpaceOnUse" gradientTransform="translate(-43 70) rotate(90) scale(182)">
<stop stop-color="white"/>
<stop offset="1" stop-color="white" stop-opacity="0"/>
</radialGradient>
<radialGradient id="paint3_radial_3248_6264" cx="0" cy="0" r="1" gradientUnits="userSpaceOnUse" gradientTransform="translate(434 712) rotate(90) scale(182)">
<stop stop-color="white"/>
<stop offset="1" stop-color="white" stop-opacity="0"/>
</radialGradient>
<radialGradient id="paint4_radial_3248_6264" cx="0" cy="0" r="1" gradientUnits="userSpaceOnUse" gradientTransform="translate(-28 648) rotate(90) scale(182)">
<stop stop-color="white"/>
<stop offset="1" stop-color="white" stop-opacity="0"/>
</radialGradient>
<linearGradient id="paint5_linear_3248_6264" x1="14" y1="701.5" x2="361" y2="811.5" gradientUnits="userSpaceOnUse">
<stop stop-color="white"/>
<stop offset="1" stop-color="white"/>
</linearGradient>
<clipPath id="clip0_3248_6264">
<rect width="375" height="812" rx="33" fill="white"/>
</clipPath>
</defs>
</svg>
