<svg width="375" height="454" viewBox="0 0 375 454" fill="none" xmlns="http://www.w3.org/2000/svg">
<g filter="url(#filter0_d_3251_13449)">
<rect x="15" y="23" width="346" height="404" rx="20" fill="white" fill-opacity="0.4" shape-rendering="crispEdges"/>
</g>
<g filter="url(#filter1_d_3251_13449)">
<rect x="16" y="87" width="343" height="250" rx="20" fill="white" fill-opacity="0.4" shape-rendering="crispEdges"/>
</g>
<text fill="#333333" xml:space="preserve" style="white-space: pre" font-family="PingFang SC" font-size="16" font-weight="500" letter-spacing="0em"><tspan x="88" y="133.76">&#x9ec4;&#x592b;&#x4eba;&#x7535;&#x5b66;&#x611f;&#x5e94;&#x8bfe;&#x7a0b;&#x3010;1&#x8282;&#x3011;</tspan></text>
<text fill="#868686" xml:space="preserve" style="white-space: pre" font-family="PingFang SC" font-size="12" letter-spacing="0em"><tspan x="88.4004" y="154.82">&#x6bcf;&#x5929;1&#x8282; &#xb7; &#x9884;&#x8ba1;30&#x5206;&#x949f;</tspan></text>
<circle cx="328" cy="138" r="13" fill="#54CA15" fill-opacity="0.2"/>
<rect x="322.49" y="138.637" width="2" height="5.56187" rx="1" transform="rotate(-45 322.49 138.637)" fill="white"/>
<rect x="332.305" y="134.484" width="2" height="9.87674" rx="1" transform="rotate(45 332.305 134.484)" fill="white"/>
<circle cx="57" cy="138" r="23" fill="white"/>
<path d="M63.4874 139.834L55.4122 144.573C53.5864 145.645 51.2854 144.338 51.2704 142.221L51.2038 132.858C51.1887 130.741 53.4709 129.402 55.3118 130.447L63.4536 135.071C65.2944 136.116 65.3132 138.763 63.4874 139.834Z" stroke="#DC74E9" stroke-width="2.5"/>
<text fill="#585858" xml:space="preserve" style="white-space: pre" font-family="PingFang SC" font-size="16" font-weight="500" letter-spacing="0em"><tspan x="88" y="207.76">&#x5b66;&#x9738;&#x7b14;&#x8bb0;&#x3010;10&#x9875;&#x3011;</tspan></text>
<text fill="#868686" xml:space="preserve" style="white-space: pre" font-family="PingFang SC" font-size="12" letter-spacing="0em"><tspan x="88.4004" y="228.82">&#x6bcf;&#x5929;2&#x9875; &#xb7; &#x9884;&#x8ba1;10&#x5206;&#x949f;</tspan></text>
<circle cx="328" cy="212" r="13" fill="#54CA15" fill-opacity="0.2"/>
<rect x="322.49" y="212.637" width="2" height="5.56187" rx="1" transform="rotate(-45 322.49 212.637)" fill="white"/>
<rect x="332.305" y="208.484" width="2" height="9.87674" rx="1" transform="rotate(45 332.305 208.484)" fill="white"/>
<circle cx="57" cy="212" r="23" fill="white"/>
<rect x="49.6504" y="203.25" width="15.5" height="17.5" rx="2.75" stroke="#F37B30" stroke-width="2.5"/>
<rect x="55.2012" y="207.5" width="7" height="1" rx="0.5" fill="#DD862A" stroke="#F37B30"/>
<rect x="58.2012" y="211.197" width="4" height="1" rx="0.5" fill="#DD862A" stroke="#F37B30"/>
<text fill="#868686" xml:space="preserve" style="white-space: pre" font-family="PingFang SC" font-size="12" letter-spacing="0em"><tspan x="88.2109" y="302.82">&#x6bcf;&#x5929;5&#x9053; &#xb7; &#x9884;&#x8ba1;30&#x5206;&#x949f;</tspan></text>
<circle cx="57" cy="286" r="23" fill="white"/>
<rect x="48.25" y="277.25" width="16.5" height="5.5" rx="2.75" stroke="#2A95E7" stroke-width="2.5"/>
<rect x="48.0996" y="287.301" width="8" height="2.5" rx="1.25" fill="#2A95E7"/>
<rect x="62.6133" y="286.801" width="8.75" height="2.1875" rx="1.09375" transform="rotate(90 62.6133 286.801)" fill="#2A95E7"/>
<rect x="65.8945" y="292.27" width="8.75" height="2.1875" rx="1.09375" transform="rotate(-180 65.8945 292.27)" fill="#2A95E7"/>
<rect x="48.0996" y="293.301" width="8" height="2" rx="1" fill="#2A95E7"/>
<circle cx="328" cy="286" r="13" fill="#54CA15" fill-opacity="0.2"/>
<rect x="322.49" y="286.637" width="2" height="5.56187" rx="1" transform="rotate(-45 322.49 286.637)" fill="white"/>
<rect x="332.305" y="282.484" width="2" height="9.87674" rx="1" transform="rotate(45 332.305 282.484)" fill="white"/>
<text fill="#585858" xml:space="preserve" style="white-space: pre" font-family="PingFang SC" font-size="16" font-weight="500" letter-spacing="0em"><tspan x="88" y="281.76">&#x9ec4;&#x592b;&#x4eba;&#x7535;&#x78c1;&#x611f;&#x5e94;&#x96c6;&#x5408;</tspan></text>
<text fill="#469337" xml:space="preserve" style="white-space: pre" font-family="PingFang SC" font-size="20" font-weight="600" letter-spacing="0em"><tspan x="38" y="64.2">&#x6570;&#x5217;&#x4e13;&#x9879;&#x7a81;&#x7834;</tspan></text>
<rect x="33" y="355" width="148" height="42" rx="14" fill="white"/>
<text fill="#585858" xml:space="preserve" style="white-space: pre" font-family="PingFang SC" font-size="16" letter-spacing="0em"><tspan x="75" y="381.76">&#x9700;&#x8981;&#x8c03;&#x6574;</tspan></text>
<rect x="195" y="355" width="148" height="42" rx="14" fill="#51AE67"/>
<text fill="white" xml:space="preserve" style="white-space: pre" font-family="PingFang SC" font-size="16" letter-spacing="0em"><tspan x="237" y="381.76">&#x6dfb;&#x52a0;&#x8ba1;&#x5212;</tspan></text>
<defs>
<filter id="filter0_d_3251_13449" x="-10" y="0" width="396" height="454" filterUnits="userSpaceOnUse" color-interpolation-filters="sRGB">
<feFlood flood-opacity="0" result="BackgroundImageFix"/>
<feColorMatrix in="SourceAlpha" type="matrix" values="0 0 0 0 0 0 0 0 0 0 0 0 0 0 0 0 0 0 127 0" result="hardAlpha"/>
<feOffset dy="2"/>
<feGaussianBlur stdDeviation="12.5"/>
<feComposite in2="hardAlpha" operator="out"/>
<feColorMatrix type="matrix" values="0 0 0 0 0.764706 0 0 0 0 0.882353 0 0 0 0 0.584314 0 0 0 0.3 0"/>
<feBlend mode="normal" in2="BackgroundImageFix" result="effect1_dropShadow_3251_13449"/>
<feBlend mode="normal" in="SourceGraphic" in2="effect1_dropShadow_3251_13449" result="shape"/>
</filter>
<filter id="filter1_d_3251_13449" x="-9" y="64" width="393" height="300" filterUnits="userSpaceOnUse" color-interpolation-filters="sRGB">
<feFlood flood-opacity="0" result="BackgroundImageFix"/>
<feColorMatrix in="SourceAlpha" type="matrix" values="0 0 0 0 0 0 0 0 0 0 0 0 0 0 0 0 0 0 127 0" result="hardAlpha"/>
<feOffset dy="2"/>
<feGaussianBlur stdDeviation="12.5"/>
<feComposite in2="hardAlpha" operator="out"/>
<feColorMatrix type="matrix" values="0 0 0 0 0.730385 0 0 0 0 0.850844 0 0 0 0 0.545681 0 0 0 0.15 0"/>
<feBlend mode="normal" in2="BackgroundImageFix" result="effect1_dropShadow_3251_13449"/>
<feBlend mode="normal" in="SourceGraphic" in2="effect1_dropShadow_3251_13449" result="shape"/>
</filter>
</defs>
</svg>
