<?xml version="1.0" encoding="UTF-8"?>
<svg width="346px" height="404px" viewBox="0 0 346 404" version="1.1" xmlns="http://www.w3.org/2000/svg" xmlns:xlink="http://www.w3.org/1999/xlink">
    <title>编组 9</title>
    <g id="页面-1" stroke="none" stroke-width="1" fill="none" fill-rule="evenodd">
        <g id="编组-9">
            <rect id="矩形" fill-opacity="0.4" fill="#FFFFFF" fill-rule="nonzero" x="0" y="0" width="346" height="404" rx="20"></rect>
            <rect id="矩形" fill-opacity="0.4" fill="#FFFFFF" fill-rule="nonzero" x="0" y="76" width="343" height="250" rx="20"></rect>
            <text id="[B站]黄夫人电场合集【20节】" fill="#585858" fill-rule="nonzero" font-family="PingFangSC-Medium, PingFang SC" font-size="16" font-weight="400">
                <tspan x="73" y="110.76">[B站]黄夫人电场合集【20节】</tspan>
            </text>
            <text id="每天1节-·-预计30分钟" fill="#868686" fill-rule="nonzero" font-family="PingFangSC-Regular, PingFang SC" font-size="12" font-weight="normal">
                <tspan x="73.4004" y="131.82">每天1节 · 预计30分钟</tspan>
            </text>
            <circle id="椭圆形" fill="#FFFFFF" fill-rule="nonzero" cx="42" cy="115" r="23"></circle>
            <path d="M48.4536,112.071 C50.2944,113.116 50.3132,115.763 48.4874,116.834 L40.4122,121.573 C38.5864,122.645 36.2854,121.338 36.2704,119.221 L36.2037255,109.858 C36.1887,107.741 38.4709,106.402 40.3118,107.447 L48.4536,112.071 Z" id="路径" stroke="#DC74E9" stroke-width="2.5"></path>
            <text id="学霸解题技巧笔记【40页】" fill="#585858" fill-rule="nonzero" font-family="PingFangSC-Medium, PingFang SC" font-size="16" font-weight="400">
                <tspan x="73" y="184.76">学霸解题技巧笔记【40页】</tspan>
            </text>
            <text id="每天1页-·-预计10分钟" fill="#868686" fill-rule="nonzero" font-family="PingFangSC-Regular, PingFang SC" font-size="12" font-weight="normal">
                <tspan x="73.4004" y="205.82">每天1页 · 预计10分钟</tspan>
            </text>
            <rect id="矩形" fill="#FFFFFF" fill-rule="nonzero" transform="translate(310.164525, 190.896311) rotate(-45.000000) translate(-310.164525, -190.896311) " x="309.164525" y="188.115376" width="2" height="5.56187" rx="1"></rect>
            <rect id="矩形" fill="#FFFFFF" fill-rule="nonzero" transform="translate(314.522152, 189.682062) rotate(45.000000) translate(-314.522152, -189.682062) " x="313.522152" y="184.743692" width="2" height="9.87674" rx="1"></rect>
            <circle id="椭圆形" fill="#FFFFFF" fill-rule="nonzero" cx="42" cy="189" r="23"></circle>
            <rect id="矩形" stroke="#F37B30" stroke-width="2.5" x="34.6499" y="180.25" width="15.5" height="17.5" rx="2.75"></rect>
            <rect id="矩形" stroke="#F37B30" fill="#DD862A" fill-rule="nonzero" x="40.2" y="184.5" width="7" height="1" rx="0.5"></rect>
            <rect id="矩形" stroke="#F37B30" fill="#DD862A" fill-rule="nonzero" x="43.1997" y="188.197" width="4" height="1" rx="0.5"></rect>
            <text id="每天3道-·-预计20分钟" fill="#868686" fill-rule="nonzero" font-family="PingFangSC-Regular, PingFang SC" font-size="12" font-weight="normal">
                <tspan x="73.2109" y="279.82">每天3道 · 预计20分钟</tspan>
            </text>
            <circle id="椭圆形" fill="#FFFFFF" fill-rule="nonzero" cx="42" cy="263" r="23"></circle>
            <rect id="矩形" stroke="#2A95E7" stroke-width="2.5" x="33.2505" y="254.25" width="16.5" height="5.5" rx="2.75"></rect>
            <rect id="矩形" fill="#2A95E7" fill-rule="nonzero" x="33.1008" y="264.3" width="8" height="2.5" rx="1.25"></rect>
            <rect id="矩形" fill="#2A95E7" fill-rule="nonzero" transform="translate(46.519550, 268.175000) rotate(90.000000) translate(-46.519550, -268.175000) " x="42.14455" y="267.08125" width="8.75" height="2.1875" rx="1.09375"></rect>
            <rect id="矩形" fill="#2A95E7" fill-rule="nonzero" transform="translate(46.519500, 268.175250) rotate(-180.000000) translate(-46.519500, -268.175250) " x="42.1445" y="267.0815" width="8.75" height="2.1875" rx="1.09375"></rect>
            <rect id="矩形" fill="#2A95E7" fill-rule="nonzero" x="33.1008" y="270.3" width="8" height="2" rx="1"></rect>
            <rect id="矩形" fill="#FFFFFF" fill-rule="nonzero" transform="translate(310.164525, 264.896311) rotate(-45.000000) translate(-310.164525, -264.896311) " x="309.164525" y="262.115376" width="2" height="5.56187" rx="1"></rect>
            <rect id="矩形" fill="#FFFFFF" fill-rule="nonzero" transform="translate(314.522152, 263.682062) rotate(45.000000) translate(-314.522152, -263.682062) " x="313.522152" y="258.743692" width="2" height="9.87674" rx="1"></rect>
            <text id="电磁专项练习精选【100题】" fill="#585858" fill-rule="nonzero" font-family="PingFangSC-Medium, PingFang SC" font-size="16" font-weight="400">
                <tspan x="73" y="258.76">电磁专项练习精选【100题】</tspan>
            </text>
            <text id="40天电磁专题训练" fill="#469337" fill-rule="nonzero" font-family="PingFangSC-Semibold, PingFang SC" font-size="20" font-weight="500">
                <tspan x="23" y="41.2">40天电磁专题训练 </tspan>
            </text>
            <path d="M39,332 L314,332 C321.731986,332 328,338.268014 328,346 L328,360 C328,367.731986 321.731986,374 314,374 L39,374 C31.2680135,374 25,367.731986 25,360 L25,353.12936 L25,353.12936 L25,346 C25,338.268014 31.2680135,332 39,332 Z" id="矩形" fill="#51AE67" fill-rule="nonzero"></path>
            <text id="添加计划" fill="#FFFFFF" fill-rule="nonzero" font-family="PingFangSC-Regular, PingFang SC" font-size="16" font-weight="normal">
                <tspan x="141" y="358.76">添加计划</tspan>
            </text>
            <text id="4月10日---5月20日-40-天完成" fill="#51AE67" fill-rule="nonzero" font-family="PingFangSC-Medium, PingFang SC" font-size="14" font-weight="400">
                <tspan x="21.5977" y="62.741">4月10日 - 5月20日 40 天完成</tspan>
            </text>
        </g>
    </g>
</svg>