<svg width="375" height="812" viewBox="0 0 375 812" fill="none" xmlns="http://www.w3.org/2000/svg" xmlns:xlink="http://www.w3.org/1999/xlink">
<g clip-path="url(#clip0_3252_13896)">
<rect width="375" height="812" rx="33" fill="#F3F3F3"/>
<rect width="375" height="812" fill="url(#pattern0_3252_13896)" fill-opacity="0.2"/>
<rect width="375" height="812" fill="url(#paint0_linear_3252_13896)"/>
<g filter="url(#filter0_d_3252_13896)">
<rect x="15" y="443" width="346" height="341" rx="20" fill="white" fill-opacity="0.4" shape-rendering="crispEdges"/>
</g>
<g filter="url(#filter1_d_3252_13896)">
<rect x="14" y="504" width="346" height="188" rx="20" fill="white" fill-opacity="0.4" shape-rendering="crispEdges"/>
</g>
<rect x="26" y="516" width="322" height="155" rx="8" fill="url(#pattern1_3252_13896)"/>
<text fill="#469337" xml:space="preserve" style="white-space: pre" font-family="PingFang SC" font-size="20" font-weight="500" letter-spacing="0em"><tspan x="33.1777" y="483.2">&#x7535;&#x5b66;&#x611f;&#x5e94; 02</tspan></text>
<rect x="32" y="710" width="310" height="54" rx="14" fill="#51AE67" fill-opacity="0.2"/>
<text fill="#469337" xml:space="preserve" style="white-space: pre" font-family="PingFang SC" font-size="16" font-weight="500" letter-spacing="0em"><tspan x="155" y="742.76">&#x4e0d;&#x592a;&#x6e05;&#x695a;</tspan></text>
<circle cx="434" cy="712" r="182" fill="url(#paint1_radial_3252_13896)" fill-opacity="0.4"/>
<circle cx="-28" cy="648" r="182" fill="url(#paint2_radial_3252_13896)" fill-opacity="0.4"/>
<circle cx="419" cy="134" r="182" fill="url(#paint3_radial_3252_13896)"/>
<circle cx="-43" cy="70" r="182" fill="url(#paint4_radial_3252_13896)"/>
<path fill-rule="evenodd" clip-rule="evenodd" d="M304 30H305C305.552 30 306 30.4477 306 31V37C306 37.5523 305.552 38 305 38H304C303.448 38 303 37.5523 303 37V31C303 30.4477 303.448 30 304 30Z" fill="#333333"/>
<path fill-rule="evenodd" clip-rule="evenodd" d="M299.5 32H300.5C301.052 32 301.5 32.4477 301.5 33V37C301.5 37.5523 301.052 38 300.5 38H299.5C298.948 38 298.5 37.5523 298.5 37V33C298.5 32.4477 298.948 32 299.5 32Z" fill="#333333"/>
<path fill-rule="evenodd" clip-rule="evenodd" d="M295 33.5H296C296.552 33.5 297 33.9477 297 34.5V37C297 37.5523 296.552 38 296 38H295C294.448 38 294 37.5523 294 37V34.5C294 33.9477 294.448 33.5 295 33.5Z" fill="#333333"/>
<path fill-rule="evenodd" clip-rule="evenodd" d="M308.5 28H309.5C310.052 28 310.5 28.4477 310.5 29V37C310.5 37.5523 310.052 38 309.5 38H308.5C307.948 38 307.5 37.5523 307.5 37V29C307.5 28.4477 307.948 28 308.5 28Z" fill="#333333" fill-opacity="0.2"/>
<path fill-rule="evenodd" clip-rule="evenodd" d="M304 30H305C305.552 30 306 30.4477 306 31V37C306 37.5523 305.552 38 305 38H304C303.448 38 303 37.5523 303 37V31C303 30.4477 303.448 30 304 30Z" fill="#333333"/>
<path fill-rule="evenodd" clip-rule="evenodd" d="M299.5 32H300.5C301.052 32 301.5 32.4477 301.5 33V37C301.5 37.5523 301.052 38 300.5 38H299.5C298.948 38 298.5 37.5523 298.5 37V33C298.5 32.4477 298.948 32 299.5 32Z" fill="#333333"/>
<path fill-rule="evenodd" clip-rule="evenodd" d="M295 33.5H296C296.552 33.5 297 33.9477 297 34.5V37C297 37.5523 296.552 38 296 38H295C294.448 38 294 37.5523 294 37V34.5C294 33.9477 294.448 33.5 295 33.5Z" fill="#333333"/>
<path d="M324.132 34.9395C324.771 34.9395 325.393 35.1075 325.94 35.4279L326.162 35.5577C326.33 35.6562 326.36 35.8865 326.222 36.024L324.328 37.9129C324.212 38.0289 324.023 38.0289 323.907 37.9129L322.025 36.0362C321.887 35.8993 321.916 35.6701 322.083 35.5709L322.302 35.4405C322.855 35.112 323.484 34.9395 324.132 34.9395Z" fill="#333333"/>
<path d="M324.133 31.4707C325.724 31.4707 327.251 31.9984 328.495 32.9758L328.671 33.1139C328.811 33.224 328.824 33.4315 328.697 33.5573L327.567 34.685C327.462 34.7893 327.297 34.8013 327.178 34.7131L327.04 34.6107C326.2 33.9861 325.186 33.6511 324.133 33.6511C323.073 33.6511 322.053 33.9903 321.21 34.622L321.072 34.7254C320.953 34.8142 320.787 34.8025 320.682 34.6979L319.552 33.5707C319.426 33.4451 319.438 33.2382 319.578 33.1279L319.753 32.9896C321 32.0036 322.534 31.4707 324.133 31.4707Z" fill="#333333"/>
<path d="M324.133 28C326.657 28 329.072 28.8906 330.983 30.5229L331.146 30.6623C331.278 30.7749 331.285 30.9756 331.163 31.098L330.036 32.2219C329.926 32.3308 329.752 32.3385 329.634 32.2395L329.494 32.1228C327.989 30.8647 326.104 30.1804 324.133 30.1804C322.155 30.1804 320.263 30.8694 318.756 32.1354L318.617 32.2527C318.498 32.3521 318.324 32.3447 318.214 32.2356L317.087 31.1118C316.965 30.9895 316.972 30.7892 317.104 30.6765L317.266 30.5371C319.18 28.8959 321.601 28 324.133 28Z" fill="#333333"/>
<path d="M360 31C360.552 31 361 31.4477 361 32V34C361 34.5523 360.552 35 360 35V31Z" fill="#333333" fill-opacity="0.6"/>
<path fill-rule="evenodd" clip-rule="evenodd" d="M339 27H356C357.657 27 359 28.3431 359 30V36C359 37.6569 357.657 39 356 39H339C337.343 39 336 37.6569 336 36V30C336 28.3431 337.343 27 339 27ZM339 28C337.895 28 337 28.8954 337 30V36C337 37.1046 337.895 38 339 38H356C357.105 38 358 37.1046 358 36V30C358 28.8954 357.105 28 356 28H339Z" fill="#333333" fill-opacity="0.6"/>
<rect x="338" y="29" width="19" height="8" rx="1" fill="#333333"/>
<path d="M37.8672 38.0889C40.5552 38.0889 42.1519 35.9868 42.1519 32.4272C42.1519 31.0869 41.8955 29.959 41.4048 29.0874C40.6943 27.7324 39.4712 27 37.9258 27C35.626 27 34 28.5454 34 30.7134C34 32.7495 35.4648 34.229 37.479 34.229C38.7168 34.229 39.7202 33.6504 40.2183 32.647H40.2402C40.2402 32.647 40.2695 32.647 40.2769 32.647C40.2915 32.647 40.3428 32.647 40.3428 32.647C40.3428 35.064 39.4272 36.5068 37.8818 36.5068C36.9736 36.5068 36.2705 36.0088 36.0288 35.2104H34.1465C34.4614 36.9463 35.9336 38.0889 37.8672 38.0889ZM37.9331 32.7275C36.7173 32.7275 35.853 31.8633 35.853 30.6548C35.853 29.4756 36.7612 28.5747 37.9404 28.5747C39.1196 28.5747 40.0278 29.4902 40.0278 30.6841C40.0278 31.8633 39.1416 32.7275 37.9331 32.7275Z" fill="#333333"/>
<path d="M45.243 37.9863C45.9388 37.9863 46.4148 37.4883 46.4148 36.8291C46.4148 36.1626 45.9388 35.6719 45.243 35.6719C44.5545 35.6719 44.0711 36.1626 44.0711 36.8291C44.0711 37.4883 44.5545 37.9863 45.243 37.9863ZM45.243 32.4932C45.9388 32.4932 46.4148 32.0024 46.4148 31.3433C46.4148 30.6768 45.9388 30.186 45.243 30.186C44.5545 30.186 44.0711 30.6768 44.0711 31.3433C44.0711 32.0024 44.5545 32.4932 45.243 32.4932Z" fill="#333333"/>
<path d="M53.2706 37.8325H55.0797V35.8623H56.5079V34.2656H55.0797V27.2637H52.4137C50.546 30.0762 49.0592 32.4272 48.107 34.1777V35.8623H53.2706V37.8325ZM49.8575 34.1997C51.088 32.0317 52.1866 30.2959 53.1974 28.8018H53.2999V34.3096H49.8575V34.1997Z" fill="#333333"/>
<path d="M60.5365 37.8325H62.4262V27.2637H60.5438L57.7826 29.1973V31.0137L60.412 29.168H60.5365V37.8325Z" fill="#333333"/>
<path d="M0 724H375V812H0V724Z" fill="white"/>
<path d="M57 745.02C57 742.258 59.2386 740.02 62 740.02H74C80.6274 740.02 86 745.392 86 752.02V766.25C86 769.012 83.7614 771.25 81 771.25H69C62.3726 771.25 57 765.878 57 759.25V745.02Z" fill="#51AE67"/>
<rect x="63.4062" y="749.184" width="13.7982" height="2.46397" rx="1.23198" fill="white"/>
<rect x="63.4062" y="755.592" width="9.85586" height="2.46397" rx="1.23198" fill="white"/>
<path d="M183.113 728.437C187.215 729.062 187.081 737.336 186.501 741.395C186.501 741.395 187.449 733.017 185.86 733.017C180.64 734.357 179.01 727.811 183.113 728.437Z" fill="white" stroke="#D9D9D9" stroke-width="1.5"/>
<path d="M192.556 732.127C194.635 731.2 194.089 727.976 191.075 728.44C188.061 728.904 187.013 731.741 186.839 733.055C186.753 738.195 186.839 742.099 186.839 741.287C186.839 734.095 188.918 733.751 192.556 732.127Z" fill="white" stroke="#D9D9D9" stroke-width="1.5"/>
<circle cx="185.301" cy="759.795" r="20.5" fill="white"/>
<ellipse cx="195.801" cy="763.795" rx="18" ry="11.5" fill="white"/>
<ellipse cx="192.301" cy="768.203" rx="13.5" ry="12" fill="white"/>
<path d="M181.801 756.783C191.296 756.25 191.803 769.621 183.678 773.203M204.323 754.217C213.818 753.684 215.872 768.227 207.746 771.81" stroke="#D9D9D9" stroke-width="2" stroke-linecap="round"/>
<path d="M169.379 773.303C166.987 769.785 164.801 765.482 164.801 760.836C164.801 748.944 174.019 739.303 185.389 739.303C194.081 739.303 200.781 744.936 203.801 752.903" stroke="#D9D9D9" stroke-width="2" stroke-linecap="round"/>
<circle cx="191.301" cy="755.988" r="1" fill="#D9D9D9"/>
<path d="M201.764 770.162C200.791 771.549 194.257 770.293 191.112 769.492C188.922 768.602 189.862 766.187 191.089 766.041C194.184 765.671 197.339 765.8 199.825 766.067C201.884 766.287 202.955 768.468 201.764 770.162Z" fill="white" stroke="#D9D9D9" stroke-width="1.5"/>
<circle cx="199.5" cy="754.195" r="1" fill="#D9D9D9"/>
<path d="M204.1 758.895C202.986 756.296 196.044 758.378 191.987 760.023C191.393 760.264 190.797 760.549 190.395 761.048C188.676 763.183 189.754 767.142 191.1 767.395C193.946 767.928 196.832 767.888 199.379 767.591C203.575 767.102 205.764 762.778 204.1 758.895Z" fill="white" stroke="#D9D9D9" stroke-width="1.5"/>
<rect x="121" y="798" width="134" height="5" rx="2.5" fill="black"/>
<mask id="path-45-inside-1_3252_13896" fill="white">
<path fill-rule="evenodd" clip-rule="evenodd" d="M310.492 762.57C313.259 760.097 315 756.502 315 752.5C315 745.044 308.956 739 301.5 739C294.044 739 288 745.044 288 752.5C288 756.502 289.741 760.097 292.508 762.57C288.828 766.582 293.505 771.6 299 771.6H302.927H304C309.495 771.6 314.172 766.582 310.492 762.57Z"/>
</mask>
<path d="M310.492 762.57L308.826 760.705L306.938 762.393L308.65 764.259L310.492 762.57ZM292.508 762.57L294.35 764.259L296.062 762.393L294.174 760.705L292.508 762.57ZM312.5 752.5C312.5 755.761 311.084 758.688 308.826 760.705L312.158 764.434C315.433 761.507 317.5 757.244 317.5 752.5H312.5ZM301.5 741.5C307.575 741.5 312.5 746.425 312.5 752.5H317.5C317.5 743.663 310.337 736.5 301.5 736.5V741.5ZM290.5 752.5C290.5 746.425 295.425 741.5 301.5 741.5V736.5C292.663 736.5 285.5 743.663 285.5 752.5H290.5ZM294.174 760.705C291.916 758.688 290.5 755.761 290.5 752.5H285.5C285.5 757.244 287.567 761.507 290.842 764.434L294.174 760.705ZM290.666 760.88C289.371 762.291 288.686 763.95 288.697 765.69C288.708 767.393 289.385 768.923 290.356 770.145C292.265 772.545 295.553 774.1 299 774.1V769.1C296.952 769.1 295.154 768.145 294.27 767.033C293.846 766.5 293.699 766.023 293.697 765.657C293.695 765.327 293.805 764.854 294.35 764.259L290.666 760.88ZM299 774.1H302.927V769.1H299V774.1ZM302.927 774.1H304V769.1H302.927V774.1ZM304 774.1C307.447 774.1 310.735 772.545 312.644 770.145C313.615 768.923 314.292 767.393 314.303 765.69C314.314 763.95 313.629 762.291 312.334 760.88L308.65 764.259C309.195 764.854 309.305 765.327 309.303 765.657C309.301 766.023 309.154 766.5 308.73 767.033C307.846 768.145 306.048 769.1 304 769.1V774.1Z" fill="#D9D9D9" mask="url(#path-45-inside-1_3252_13896)"/>
<circle cx="298" cy="751.5" r="1.5" fill="#D9D9D9"/>
<circle cx="304.898" cy="751.5" r="1.5" fill="#D9D9D9"/>
<rect x="26" y="516" width="322" height="151.689" rx="8" fill="url(#pattern2_3252_13896)"/>
<rect x="95.0742" y="564.418" width="44.694" height="21.6698" rx="8" fill="url(#pattern3_3252_13896)"/>
<g filter="url(#filter2_d_3252_13896)">
<rect x="14" y="648" width="166" height="50" rx="14" fill="white" shape-rendering="crispEdges"/>
<text fill="#585858" xml:space="preserve" style="white-space: pre" font-family="PingFang SC" font-size="16" letter-spacing="0em"><tspan x="65" y="678.76">&#x7b49;&#x4f1a;&#x518d;&#x770b;</tspan></text>
</g>
<g filter="url(#filter3_d_3252_13896)">
<rect x="195" y="648" width="166" height="50" rx="14" fill="#51AE67" shape-rendering="crispEdges"/>
<text fill="white" xml:space="preserve" style="white-space: pre" font-family="PingFang SC" font-size="16" letter-spacing="0em"><tspan x="246" y="678.76">&#x6211;&#x5df2;&#x5b8c;&#x6210;</tspan></text>
</g>
<g filter="url(#filter4_d_3252_13896)">
<rect x="15" y="78" width="346" height="341" rx="20" fill="white" fill-opacity="0.4" shape-rendering="crispEdges"/>
</g>
<g filter="url(#filter5_d_3252_13896)">
<rect x="14" y="139" width="346" height="188" rx="20" fill="white" fill-opacity="0.4" shape-rendering="crispEdges"/>
</g>
<rect x="26" y="151" width="322" height="155" rx="8" fill="url(#pattern4_3252_13896)"/>
<text fill="#469337" xml:space="preserve" style="white-space: pre" font-family="PingFang SC" font-size="20" font-weight="500" letter-spacing="0em"><tspan x="33.0918" y="118.2">&#x7535;&#x5b66;&#x611f;&#x5e94; 01</tspan></text>
<rect x="32" y="345" width="310" height="54" rx="14" fill="#51AE67" fill-opacity="0.2"/>
<text fill="#469337" xml:space="preserve" style="white-space: pre" font-family="PingFang SC" font-size="16" font-weight="500" letter-spacing="0em"><tspan x="155" y="377.76">&#x8fd9;&#x9898;&#x4e0d;&#x4f1a;</tspan></text>
</g>
<defs>
<pattern id="pattern0_3252_13896" patternContentUnits="objectBoundingBox" width="1" height="1">
<use xlink:href="#image0_3252_13896" transform="matrix(0.00180444 0 0 0.000833333 -0.582667 0)"/>
</pattern>
<filter id="filter0_d_3252_13896" x="-10" y="420" width="396" height="391" filterUnits="userSpaceOnUse" color-interpolation-filters="sRGB">
<feFlood flood-opacity="0" result="BackgroundImageFix"/>
<feColorMatrix in="SourceAlpha" type="matrix" values="0 0 0 0 0 0 0 0 0 0 0 0 0 0 0 0 0 0 127 0" result="hardAlpha"/>
<feOffset dy="2"/>
<feGaussianBlur stdDeviation="12.5"/>
<feComposite in2="hardAlpha" operator="out"/>
<feColorMatrix type="matrix" values="0 0 0 0 0.764706 0 0 0 0 0.882353 0 0 0 0 0.584314 0 0 0 0.3 0"/>
<feBlend mode="normal" in2="BackgroundImageFix" result="effect1_dropShadow_3252_13896"/>
<feBlend mode="normal" in="SourceGraphic" in2="effect1_dropShadow_3252_13896" result="shape"/>
</filter>
<filter id="filter1_d_3252_13896" x="-11" y="481" width="396" height="238" filterUnits="userSpaceOnUse" color-interpolation-filters="sRGB">
<feFlood flood-opacity="0" result="BackgroundImageFix"/>
<feColorMatrix in="SourceAlpha" type="matrix" values="0 0 0 0 0 0 0 0 0 0 0 0 0 0 0 0 0 0 127 0" result="hardAlpha"/>
<feOffset dy="2"/>
<feGaussianBlur stdDeviation="12.5"/>
<feComposite in2="hardAlpha" operator="out"/>
<feColorMatrix type="matrix" values="0 0 0 0 0.764706 0 0 0 0 0.882353 0 0 0 0 0.584314 0 0 0 0.3 0"/>
<feBlend mode="normal" in2="BackgroundImageFix" result="effect1_dropShadow_3252_13896"/>
<feBlend mode="normal" in="SourceGraphic" in2="effect1_dropShadow_3252_13896" result="shape"/>
</filter>
<pattern id="pattern1_3252_13896" patternContentUnits="objectBoundingBox" width="1" height="1">
<use xlink:href="#image1_3252_13896" transform="matrix(0.00117982 0 0 0.00245098 -0.0014234 0)"/>
</pattern>
<pattern id="pattern2_3252_13896" patternContentUnits="objectBoundingBox" width="1" height="1">
<use xlink:href="#image2_3252_13896" transform="scale(0.000525762 0.00111607)"/>
</pattern>
<pattern id="pattern3_3252_13896" patternContentUnits="objectBoundingBox" width="1" height="1">
<use xlink:href="#image2_3252_13896" transform="matrix(0.0013369 0 0 0.00274725 -0.465241 -1.04945)"/>
</pattern>
<filter id="filter2_d_3252_13896" x="-11" y="625" width="216" height="100" filterUnits="userSpaceOnUse" color-interpolation-filters="sRGB">
<feFlood flood-opacity="0" result="BackgroundImageFix"/>
<feColorMatrix in="SourceAlpha" type="matrix" values="0 0 0 0 0 0 0 0 0 0 0 0 0 0 0 0 0 0 127 0" result="hardAlpha"/>
<feOffset dy="2"/>
<feGaussianBlur stdDeviation="12.5"/>
<feComposite in2="hardAlpha" operator="out"/>
<feColorMatrix type="matrix" values="0 0 0 0 0.764706 0 0 0 0 0.882353 0 0 0 0 0.584314 0 0 0 0.3 0"/>
<feBlend mode="normal" in2="BackgroundImageFix" result="effect1_dropShadow_3252_13896"/>
<feBlend mode="normal" in="SourceGraphic" in2="effect1_dropShadow_3252_13896" result="shape"/>
</filter>
<filter id="filter3_d_3252_13896" x="170" y="625" width="216" height="100" filterUnits="userSpaceOnUse" color-interpolation-filters="sRGB">
<feFlood flood-opacity="0" result="BackgroundImageFix"/>
<feColorMatrix in="SourceAlpha" type="matrix" values="0 0 0 0 0 0 0 0 0 0 0 0 0 0 0 0 0 0 127 0" result="hardAlpha"/>
<feOffset dy="2"/>
<feGaussianBlur stdDeviation="12.5"/>
<feComposite in2="hardAlpha" operator="out"/>
<feColorMatrix type="matrix" values="0 0 0 0 0.764706 0 0 0 0 0.882353 0 0 0 0 0.584314 0 0 0 0.3 0"/>
<feBlend mode="normal" in2="BackgroundImageFix" result="effect1_dropShadow_3252_13896"/>
<feBlend mode="normal" in="SourceGraphic" in2="effect1_dropShadow_3252_13896" result="shape"/>
</filter>
<filter id="filter4_d_3252_13896" x="-10" y="55" width="396" height="391" filterUnits="userSpaceOnUse" color-interpolation-filters="sRGB">
<feFlood flood-opacity="0" result="BackgroundImageFix"/>
<feColorMatrix in="SourceAlpha" type="matrix" values="0 0 0 0 0 0 0 0 0 0 0 0 0 0 0 0 0 0 127 0" result="hardAlpha"/>
<feOffset dy="2"/>
<feGaussianBlur stdDeviation="12.5"/>
<feComposite in2="hardAlpha" operator="out"/>
<feColorMatrix type="matrix" values="0 0 0 0 0.764706 0 0 0 0 0.882353 0 0 0 0 0.584314 0 0 0 0.3 0"/>
<feBlend mode="normal" in2="BackgroundImageFix" result="effect1_dropShadow_3252_13896"/>
<feBlend mode="normal" in="SourceGraphic" in2="effect1_dropShadow_3252_13896" result="shape"/>
</filter>
<filter id="filter5_d_3252_13896" x="-11" y="116" width="396" height="238" filterUnits="userSpaceOnUse" color-interpolation-filters="sRGB">
<feFlood flood-opacity="0" result="BackgroundImageFix"/>
<feColorMatrix in="SourceAlpha" type="matrix" values="0 0 0 0 0 0 0 0 0 0 0 0 0 0 0 0 0 0 127 0" result="hardAlpha"/>
<feOffset dy="2"/>
<feGaussianBlur stdDeviation="12.5"/>
<feComposite in2="hardAlpha" operator="out"/>
<feColorMatrix type="matrix" values="0 0 0 0 0.764706 0 0 0 0 0.882353 0 0 0 0 0.584314 0 0 0 0.3 0"/>
<feBlend mode="normal" in2="BackgroundImageFix" result="effect1_dropShadow_3252_13896"/>
<feBlend mode="normal" in="SourceGraphic" in2="effect1_dropShadow_3252_13896" result="shape"/>
</filter>
<pattern id="pattern4_3252_13896" patternContentUnits="objectBoundingBox" width="1" height="1">
<use xlink:href="#image1_3252_13896" transform="matrix(0.00117982 0 0 0.00245098 -0.0014234 0)"/>
</pattern>
<linearGradient id="paint0_linear_3252_13896" x1="188" y1="-29.5" x2="614.263" y2="365.503" gradientUnits="userSpaceOnUse">
<stop stop-color="#CCFF88"/>
<stop offset="1" stop-color="#F1FFD7"/>
</linearGradient>
<radialGradient id="paint1_radial_3252_13896" cx="0" cy="0" r="1" gradientUnits="userSpaceOnUse" gradientTransform="translate(434 712) rotate(90) scale(182)">
<stop stop-color="white"/>
<stop offset="1" stop-color="white" stop-opacity="0"/>
</radialGradient>
<radialGradient id="paint2_radial_3252_13896" cx="0" cy="0" r="1" gradientUnits="userSpaceOnUse" gradientTransform="translate(-28 648) rotate(90) scale(182)">
<stop stop-color="white"/>
<stop offset="1" stop-color="white" stop-opacity="0"/>
</radialGradient>
<radialGradient id="paint3_radial_3252_13896" cx="0" cy="0" r="1" gradientUnits="userSpaceOnUse" gradientTransform="translate(419 134) rotate(90) scale(182)">
<stop stop-color="white"/>
<stop offset="1" stop-color="white" stop-opacity="0"/>
</radialGradient>
<radialGradient id="paint4_radial_3252_13896" cx="0" cy="0" r="1" gradientUnits="userSpaceOnUse" gradientTransform="translate(-43 70) rotate(90) scale(182)">
<stop stop-color="white"/>
<stop offset="1" stop-color="white" stop-opacity="0"/>
</radialGradient>
<clipPath id="clip0_3252_13896">
<rect width="375" height="812" rx="33" fill="white"/>
</clipPath>

</defs>
</svg>
