<svg width="10" height="4" viewBox="0 0 10 4" fill="none" xmlns="http://www.w3.org/2000/svg">
<path id="Path" d="M5.13267 0.470703C6.7235 0.470703 8.25092 0.998447 9.49521 1.97577L9.67106 2.11389C9.81126 2.22401 9.82358 2.4315 9.69738 2.55734L8.5666 3.68498C8.46202 3.78927 8.29653 3.80125 8.17793 3.71311L8.04009 3.61067C7.1997 2.98609 6.18633 2.65106 5.13267 2.65106C4.07251 2.65106 3.05323 2.99025 2.21005 3.622L2.07207 3.72539C1.95346 3.81425 1.78737 3.80255 1.68247 3.69794L0.552103 2.57072C0.426179 2.44514 0.438134 2.23818 0.577686 2.12785L0.752538 1.98962C1.99979 1.00358 3.53416 0.470703 5.13267 0.470703Z" fill="#333333"/>
</svg>
