<svg width="8" height="7" viewBox="0 0 8 7" fill="none" xmlns="http://www.w3.org/2000/svg">
<g id="Ellipse 7">
<mask id="path-1-inside-1_3251_13674" fill="white">
<path d="M5.67215 5.82904C4.34663 7.15456 2.16536 7.1681 1.11181 5.6176C0.912256 5.32392 0.721432 5.02439 0.539592 4.71942C-0.420419 3.10933 0.513646 1.13814 2.27515 0.49696L3.16631 0.172584C4.43564 -0.289446 5.81851 0.386022 6.54431 1.52527C7.27011 2.66452 7.2979 4.20329 6.34273 5.15845L5.67215 5.82904Z"/>
</mask>
<path d="M5.67215 5.82904C4.34663 7.15456 2.16536 7.1681 1.11181 5.6176C0.912256 5.32392 0.721432 5.02439 0.539592 4.71942C-0.420419 3.10933 0.513646 1.13814 2.27515 0.49696L3.16631 0.172584C4.43564 -0.289446 5.81851 0.386022 6.54431 1.52527C7.27011 2.66452 7.2979 4.20329 6.34273 5.15845L5.67215 5.82904Z" fill="#54CB15" stroke="#54CB15" stroke-width="12" mask="url(#path-1-inside-1_3251_13674)"/>
</g>
</svg>
