<svg width="27" height="33" viewBox="0 0 27 33" fill="none" xmlns="http://www.w3.org/2000/svg">
<g id="Union">
<mask id="path-1-inside-1_3252_13930" fill="white">
<path fill-rule="evenodd" clip-rule="evenodd" d="M22.492 23.5697C25.2585 21.0975 27 17.5021 27 13.5C27 6.04416 20.9558 0 13.5 0C6.04416 0 0 6.04416 0 13.5C0 17.5021 1.7415 21.0975 4.50803 23.5697C0.827723 27.5822 5.50501 32.5996 11 32.5996H14.9272H16C21.495 32.5996 26.1723 27.5822 22.492 23.5697Z"/>
</mask>
<path d="M22.492 23.5697L20.8262 21.7055L18.9377 23.393L20.6496 25.2595L22.492 23.5697ZM4.50803 23.5697L6.35043 25.2595L8.06232 23.393L6.17383 21.7055L4.50803 23.5697ZM24.5 13.5C24.5 16.7607 23.0844 19.6876 20.8262 21.7055L24.1578 25.4338C27.4326 22.5074 29.5 18.2435 29.5 13.5H24.5ZM13.5 2.5C19.5751 2.5 24.5 7.42487 24.5 13.5H29.5C29.5 4.66344 22.3366 -2.5 13.5 -2.5V2.5ZM2.5 13.5C2.5 7.42487 7.42487 2.5 13.5 2.5V-2.5C4.66344 -2.5 -2.5 4.66344 -2.5 13.5H2.5ZM6.17383 21.7055C3.91561 19.6876 2.5 16.7607 2.5 13.5H-2.5C-2.5 18.2435 -0.43262 22.5074 2.84222 25.4338L6.17383 21.7055ZM2.66562 21.8798C1.3712 23.2911 0.685637 24.9503 0.69709 26.6899C0.708304 28.3931 1.3848 29.9232 2.35645 31.1453C4.26468 33.5452 7.55328 35.0996 11 35.0996V30.0996C8.95173 30.0996 7.15419 29.1453 6.2701 28.0334C5.8456 27.4996 5.69939 27.023 5.69698 26.6569C5.69481 26.3272 5.8047 25.8545 6.35043 25.2595L2.66562 21.8798ZM11 35.0996H14.9272V30.0996H11V35.0996ZM14.9272 35.0996H16V30.0996H14.9272V35.0996ZM16 35.0996C19.4467 35.0996 22.7353 33.5452 24.6435 31.1453C25.6152 29.9232 26.2917 28.3931 26.3029 26.6899C26.3144 24.9503 25.6288 23.2911 24.3344 21.8798L20.6496 25.2595C21.1953 25.8545 21.3052 26.3272 21.303 26.6569C21.3006 27.023 21.1544 27.4996 20.7299 28.0334C19.8458 29.1453 18.0483 30.0996 16 30.0996V35.0996Z" fill="#D9D9D9" mask="url(#path-1-inside-1_3252_13930)"/>
</g>
</svg>
