<svg width="27" height="34" viewBox="0 0 27 34" fill="none" xmlns="http://www.w3.org/2000/svg">
<g id="Union">
<mask id="path-1-inside-1_3251_13745" fill="white">
<path fill-rule="evenodd" clip-rule="evenodd" d="M22.492 24.4954C25.2585 22.0233 27 18.4279 27 14.4258C27 6.96994 20.9558 0.925781 13.5 0.925781C6.04416 0.925781 0 6.96994 0 14.4258C0 18.4279 1.7415 22.0233 4.50803 24.4954C0.827723 28.508 5.50501 33.5254 11 33.5254H14.9272H16C21.495 33.5254 26.1723 28.508 22.492 24.4954Z"/>
</mask>
<path d="M22.492 24.4954L20.8262 22.6313L18.9377 24.3188L20.6496 26.1853L22.492 24.4954ZM4.50803 24.4954L6.35043 26.1853L8.06232 24.3188L6.17383 22.6313L4.50803 24.4954ZM24.5 14.4258C24.5 17.6865 23.0844 20.6133 20.8262 22.6313L24.1578 26.3596C27.4326 23.4332 29.5 19.1693 29.5 14.4258H24.5ZM13.5 3.42578C19.5751 3.42578 24.5 8.35065 24.5 14.4258H29.5C29.5 5.58923 22.3366 -1.57422 13.5 -1.57422V3.42578ZM2.5 14.4258C2.5 8.35065 7.42487 3.42578 13.5 3.42578V-1.57422C4.66344 -1.57422 -2.5 5.58923 -2.5 14.4258H2.5ZM6.17383 22.6313C3.91561 20.6133 2.5 17.6865 2.5 14.4258H-2.5C-2.5 19.1693 -0.43262 23.4332 2.84222 26.3596L6.17383 22.6313ZM2.66562 22.8056C1.3712 24.2169 0.685637 25.8761 0.69709 27.6156C0.708304 29.3189 1.3848 30.849 2.35645 32.071C4.26468 34.471 7.55328 36.0254 11 36.0254V31.0254C8.95173 31.0254 7.15419 30.0711 6.2701 28.9592C5.8456 28.4253 5.69939 27.9488 5.69698 27.5827C5.69481 27.253 5.8047 26.7803 6.35043 26.1853L2.66562 22.8056ZM11 36.0254H14.9272V31.0254H11V36.0254ZM14.9272 36.0254H16V31.0254H14.9272V36.0254ZM16 36.0254C19.4467 36.0254 22.7353 34.471 24.6435 32.071C25.6152 30.849 26.2917 29.3189 26.3029 27.6156C26.3144 25.8761 25.6288 24.2169 24.3344 22.8056L20.6496 26.1853C21.1953 26.7803 21.3052 27.253 21.303 27.5827C21.3006 27.9488 21.1544 28.4253 20.7299 28.9592C19.8458 30.0711 18.0483 31.0254 16 31.0254V36.0254Z" fill="#D9D9D9" mask="url(#path-1-inside-1_3251_13745)"/>
</g>
</svg>
